<svg width="32" height="32" viewBox="0 0 32 32" fill="none" xmlns="http://www.w3.org/2000/svg">
<g id="support_badge-white.svg" clip-path="url(#clip0_42_85)">
<g id="Group">
<path id="Vector" fill-rule="evenodd" clip-rule="evenodd" d="M12.293 3.17087C5.37532 5.06603 1.24903 12.3637 3.10297 19.4379C4.9569 26.5121 12.0992 30.7226 19.0169 28.8274C25.9346 26.9322 30.0608 19.6346 28.2069 12.5604C26.353 5.48622 19.2107 1.2757 12.293 3.17087ZM19.7047 31.4521C11.3625 33.7375 2.76945 28.6629 0.536197 20.1414C-1.69706 11.6198 3.26302 2.83215 11.6053 0.546692C19.9348 -1.73525 28.5406 3.33589 30.7739 11.8574C33.0071 20.379 28.0342 29.1701 19.7047 31.4521Z" fill="#FAFAFA"/>
<path id="Vector_2" fill-rule="evenodd" clip-rule="evenodd" d="M14.3568 11.0445C11.6872 11.7759 10.0879 14.5965 10.804 17.3286C11.5203 20.0619 14.2843 21.6858 16.9539 20.9544C19.6234 20.2231 21.223 17.4037 20.5067 14.6704C19.7907 11.9384 17.0263 10.3132 14.3568 11.0445ZM17.6417 23.5789C13.5475 24.7005 9.33238 22.2112 8.23707 18.0318C7.14177 13.8524 9.57481 9.54177 13.669 8.42014C17.7503 7.30199 21.9782 9.78782 23.0735 13.9672C24.1688 18.1466 21.723 22.4608 17.6417 23.5789Z" fill="#FAFAFA"/>
<path id="Vector_3" fill-rule="evenodd" clip-rule="evenodd" d="M11.623 11.3241C11.2637 11.4225 10.9043 11.2059 10.8094 10.8437L8.88946 3.51765C8.79416 3.15416 8.99986 2.78419 9.35917 2.68574C9.70574 2.5908 10.0776 2.80255 10.1729 3.16605L12.0928 10.4922C12.1878 10.8543 11.9696 11.2292 11.623 11.3241Z" fill="#FAFAFA"/>
<path id="Vector_4" fill-rule="evenodd" clip-rule="evenodd" d="M16.8594 9.88879C16.5 9.98721 16.1407 9.77061 16.0457 9.40844L14.1258 2.08233C14.0305 1.71885 14.2362 1.34887 14.5955 1.25042C14.9549 1.15197 15.3139 1.36724 15.4092 1.73072L17.3292 9.05686C17.4241 9.41903 17.2188 9.7903 16.8594 9.88879Z" fill="#FAFAFA"/>
<path id="Vector_5" fill-rule="evenodd" clip-rule="evenodd" d="M16.7246 30.788C16.3653 30.8864 16.0059 30.6699 15.911 30.3077L13.991 22.9815C13.8958 22.618 14.1015 22.2481 14.4608 22.1496C14.8073 22.0547 15.1792 22.2664 15.2745 22.6299L17.1944 29.956C17.2894 30.3182 17.0712 30.693 16.7246 30.788Z" fill="#FAFAFA"/>
<path id="Vector_6" fill-rule="evenodd" clip-rule="evenodd" d="M21.9608 29.3526C21.6015 29.4511 21.2421 29.2344 21.1472 28.8723L19.2272 21.5462C19.132 21.1827 19.3376 20.8127 19.697 20.7143C20.0564 20.6159 20.4154 20.8311 20.5107 21.1946L22.4306 28.5207C22.5256 28.8829 22.3202 29.2541 21.9608 29.3526Z" fill="#FAFAFA"/>
<path id="Vector_7" fill-rule="evenodd" clip-rule="evenodd" d="M28.2341 10.4071L21.0597 12.3726C20.7132 12.4676 20.3409 12.2545 20.246 11.8924C20.1507 11.5288 20.3692 11.1554 20.7157 11.0604L27.8901 9.09492C28.2367 8.99998 28.6085 9.21175 28.7038 9.5752C28.7987 9.93737 28.5806 10.3122 28.2341 10.4071Z" fill="#FAFAFA"/>
<path id="Vector_8" fill-rule="evenodd" clip-rule="evenodd" d="M29.6382 15.7636L22.4638 17.7291C22.1172 17.824 21.7451 17.611 21.6501 17.2488C21.5549 16.8853 21.7734 16.5118 22.1199 16.4169L29.2943 14.4514C29.6408 14.3564 30.0127 14.5682 30.108 14.9317C30.2029 15.2939 29.9847 15.6686 29.6382 15.7636Z" fill="#FAFAFA"/>
<path id="Vector_9" fill-rule="evenodd" clip-rule="evenodd" d="M9.18799 15.6242L2.02645 17.5861C1.66708 17.6846 1.30769 17.468 1.21278 17.1058C1.11752 16.7423 1.32319 16.3724 1.68255 16.2739L8.84413 14.312C9.20344 14.2135 9.56253 14.4288 9.65777 14.7922C9.75265 15.1544 9.54737 15.5257 9.18799 15.6242Z" fill="#FAFAFA"/>
<path id="Vector_10" fill-rule="evenodd" clip-rule="evenodd" d="M10.5922 20.9816L3.43065 22.9435C3.07129 23.042 2.7119 22.8254 2.61699 22.4632C2.52173 22.0998 2.72739 21.7298 3.08675 21.6313L10.2483 19.6693C10.6076 19.5709 10.9667 19.7862 11.062 20.1496C11.1569 20.5118 10.9516 20.8831 10.5922 20.9816Z" fill="#FAFAFA"/>
</g>
</g>
<defs>
<clipPath id="clip0_42_85">
<rect width="32" height="32" fill="white"/>
</clipPath>
</defs>
</svg>
