<svg width="33" height="36" viewBox="0 0 33 36" fill="none" xmlns="http://www.w3.org/2000/svg">
<g id="security_badge-white.svg" clip-path="url(#clip0_42_100)">
<g id="Group">
<path id="Vector" fill-rule="evenodd" clip-rule="evenodd" d="M16.4932 2.80618C12.6632 2.80618 8.88948 3.41587 5.25664 4.61979C4.32731 4.91267 3.56695 5.93776 3.56695 6.8671V20.7649C3.56695 21.9688 4.31323 24.0894 5.28481 25.1159C10.3821 30.3455 13.677 33.1842 16.4932 33.1842C19.2952 33.1842 22.5902 30.3441 27.7016 25.1018C28.6731 24.0894 29.4053 21.9688 29.4194 20.7536V6.86991C29.4194 5.97155 28.6168 4.90141 27.7438 4.62542C24.0968 3.41587 20.3091 2.80618 16.4932 2.80618ZM16.4935 36C12.6635 36 9.0306 32.9938 3.25746 27.0699C1.69449 25.4295 0.75107 22.5838 0.75107 20.7715V6.86952C0.736989 4.71515 2.31404 2.59458 4.38393 1.93982C12.1848 -0.642615 20.774 -0.652472 28.6171 1.94545C30.6307 2.58331 32.2359 4.75035 32.2359 6.86952V20.7603C32.2218 22.5852 31.2784 25.4351 29.7295 27.0573C23.9423 32.9923 20.3235 36 16.4935 36Z" fill="#FAFAFA"/>
<path id="Vector_2" fill-rule="evenodd" clip-rule="evenodd" d="M7.08662 7.73297V20.7381C7.08662 21.1591 7.5513 22.3841 7.80475 22.6545C9.84645 24.7497 14.634 29.6639 16.4926 29.6639C18.3372 29.6639 23.0965 24.7778 25.1383 22.6925C25.434 22.3785 25.8845 21.1421 25.8986 20.7493V7.72874C19.8017 5.87007 13.24 5.86021 7.08662 7.73297ZM16.4928 31.0717C14.2258 31.0717 10.4662 27.3979 6.7911 23.6327C6.24195 23.0582 5.69279 21.4741 5.67871 20.7476V7.21443C5.67871 6.90888 5.87585 6.63712 6.15746 6.54418C12.9022 4.37855 20.1538 4.38981 26.814 6.54137C27.1098 6.63571 27.3069 6.90606 27.3069 7.21161V20.7602C27.2928 21.4896 26.7155 23.0737 26.1664 23.6482C22.4912 27.4177 18.7457 31.0717 16.4928 31.0717Z" fill="#FAFAFA"/>
<path id="Vector_3" fill-rule="evenodd" clip-rule="evenodd" d="M15.0994 21.4891C14.7052 21.4891 14.339 21.3315 14.0715 21.0512L11.7622 18.6265C11.2272 18.0633 11.2553 17.1719 11.8186 16.6354C12.3818 16.1004 13.2689 16.1201 13.804 16.6847L15.0149 17.9563L19.1124 12.9688C19.6052 12.3703 20.4924 12.2788 21.0838 12.773C21.6892 13.2673 21.7737 14.1544 21.2809 14.7557L16.1836 20.9738C15.9302 21.285 15.55 21.4736 15.1416 21.4877L15.0994 21.4891Z" fill="#FAFAFA"/>
</g>
</g>
<defs>
<clipPath id="clip0_42_100">
<rect width="32" height="36" fill="white" transform="translate(0.75)"/>
</clipPath>
</defs>
</svg>
