<svg width="33" height="32" viewBox="0 0 33 32" fill="none" xmlns="http://www.w3.org/2000/svg">
<g id="uptime_badge-white.svg" clip-path="url(#clip0_42_108)">
<g id="Group">
<path id="Vector" fill-rule="evenodd" clip-rule="evenodd" d="M16.9093 2.71766C13.3617 2.71766 10.0179 4.09946 7.51693 6.6076C5.00233 9.11573 3.6295 12.4513 3.6295 16.0003C3.6295 19.5505 5.00233 22.8861 7.51693 25.3956C10.0179 27.9024 13.3617 29.2828 16.9093 29.2828C20.4569 29.2828 23.8006 27.9011 26.3016 25.3929C31.4939 20.2135 31.4939 11.787 26.3016 6.6076C23.8006 4.09946 20.4569 2.71766 16.9093 2.71766ZM16.9093 32C12.6277 32 8.61798 30.3369 5.58688 27.3166C2.56937 24.2935 0.897501 20.2745 0.911093 16C0.911093 11.7242 2.56937 7.70652 5.58688 4.68614C8.61798 1.66441 12.6413 0 16.9093 0C21.191 0 25.2007 1.66441 28.2318 4.68614C34.4707 10.9239 34.4707 21.0761 28.2318 27.3138C25.2007 30.3356 21.191 32 16.9093 32Z" fill="#FAFAFA"/>
<path id="Vector_2" fill-rule="evenodd" clip-rule="evenodd" d="M9.43343 24.1513C9.25672 24.1513 9.09359 24.0848 8.9577 23.9516C4.56732 19.5684 4.56732 12.4339 8.9577 8.04808C13.348 3.66627 20.484 3.66627 24.8608 8.04808C29.2511 12.4326 29.2511 19.5657 24.8608 23.9489C24.6025 24.2152 24.1676 24.2152 23.9093 23.9489C23.6374 23.6839 23.6374 23.2546 23.9093 22.9883C27.756 19.135 27.756 12.8633 23.9093 9.00864C20.049 5.1554 13.7694 5.1554 9.92274 9.00864C6.06249 12.8646 6.06249 19.1364 9.92274 22.991C10.181 23.2573 10.181 23.6866 9.92274 23.9516C9.78678 24.0848 9.61014 24.1513 9.43343 24.1513Z" fill="#FAFAFA"/>
<path id="Vector_3" fill-rule="evenodd" clip-rule="evenodd" d="M16.9092 22.6143C15.4411 22.6143 14.2451 23.8059 14.2451 25.2759C14.2451 26.7447 15.4411 27.9349 16.9092 27.9349C18.3771 27.9349 19.5733 26.7447 19.5733 25.2759C19.5733 23.8059 18.3771 22.6143 16.9092 22.6143Z" fill="#FAFAFA"/>
<path id="Vector_4" fill-rule="evenodd" clip-rule="evenodd" d="M17.1971 26.1821C17.7272 26.1821 18.2166 25.8832 18.4476 25.3791L23.5448 14.0001C23.8438 13.3153 23.5448 12.511 22.8516 12.2039C22.172 11.8941 21.37 12.2066 21.0574 12.8886L15.9602 24.2678C15.6612 24.9525 15.9602 25.7568 16.6534 26.064C16.8301 26.1441 17.0204 26.1821 17.1971 26.1821Z" fill="#FAFAFA"/>
</g>
</g>
<defs>
<clipPath id="clip0_42_108">
<rect width="32" height="32" fill="white" transform="translate(0.910034)"/>
</clipPath>
</defs>
</svg>
