<svg width="151" height="31" viewBox="0 0 151 31" fill="none" xmlns="http://www.w3.org/2000/svg">
<g id="Frame" clip-path="url(#clip0_85_13)">
<g id="Group">
<g id="Group_2">
<g id="Group_3">
<path id="Vector" d="M45.7371 27.0525C45.5138 27.0525 45.3261 26.9731 45.1688 26.8167C45.014 26.6603 44.9353 26.4681 44.9353 26.2425V4.28381C44.9353 4.03772 45.014 3.8352 45.1688 3.67627C45.3235 3.5199 45.5138 3.44043 45.7371 3.44043H54.6835C56.419 3.44043 57.9337 3.71728 59.2226 4.26587C60.5141 4.81701 61.5163 5.64757 62.2268 6.76268C62.9372 7.87779 63.295 9.26463 63.295 10.9283C63.295 12.6151 62.9397 14.0045 62.2268 15.0939C61.5138 16.186 60.5116 16.9986 59.2226 17.5395C57.9312 18.0804 56.419 18.3496 54.6835 18.3496H49.7079V26.2425C49.7079 26.4681 49.6343 26.6577 49.4897 26.8167C49.3451 26.9731 49.1497 27.0525 48.9061 27.0525H45.7371ZM49.6445 14.6069H54.5186C55.81 14.6069 56.7996 14.2967 57.4897 13.6789C58.1798 13.0611 58.5249 12.1434 58.5249 10.9309C58.5249 9.80552 58.2027 8.90061 57.5582 8.21617C56.9137 7.53172 55.8988 7.18822 54.5211 7.18822H49.647V14.6069H49.6445Z" fill="#FAFAFA"/>
<path id="Vector_2" d="M67.3367 27.0525C67.1134 27.0525 66.9257 26.9731 66.7684 26.8167C66.6111 26.6603 66.5349 26.4681 66.5349 26.2425V10.3567C66.5349 10.1106 66.6136 9.90808 66.7684 9.74914C66.9231 9.59277 67.1134 9.51331 67.3367 9.51331H70.0414C70.2647 9.51331 70.4601 9.59277 70.625 9.74914C70.7925 9.90552 70.8762 10.108 70.8762 10.3567V11.7384C71.3887 11.0181 72.0509 10.4695 72.8629 10.085C73.6748 9.703 74.6161 9.51074 75.6843 9.51074H77.0544C77.298 9.51074 77.4934 9.59021 77.638 9.74658C77.7826 9.90295 77.8562 10.0952 77.8562 10.3208V12.7484C77.8562 12.974 77.7826 13.1637 77.638 13.3226C77.4934 13.479 77.298 13.5585 77.0544 13.5585H74.4512C73.383 13.5585 72.5533 13.8558 71.9647 14.4531C71.3735 15.0504 71.0792 15.8861 71.0792 16.9653V26.2425C71.0792 26.4681 71.0005 26.6578 70.8457 26.8167C70.691 26.9731 70.4905 27.0525 70.2444 27.0525H67.3367Z" fill="#FAFAFA"/>
<path id="Vector_3" d="M81.1268 6.61119C80.9035 6.61119 80.7158 6.53172 80.5585 6.37535C80.4012 6.21898 80.325 6.02672 80.325 5.80113V3.37353C80.325 3.14795 80.4037 2.95825 80.5585 2.79932C80.7132 2.64294 80.9035 2.56348 81.1268 2.56348H84.1639C84.4075 2.56348 84.6079 2.64294 84.7652 2.79932C84.92 2.95569 84.9987 3.14795 84.9987 3.37353V5.80113C84.9987 6.02672 84.92 6.21642 84.7652 6.37535C84.6105 6.53172 84.41 6.61119 84.1639 6.61119H81.1268ZM81.2588 27.0523C81.0355 27.0523 80.8477 26.9728 80.6904 26.8164C80.5331 26.6601 80.457 26.4678 80.457 26.2422V10.3231C80.457 10.0975 80.5356 9.90781 80.6904 9.74887C80.8452 9.5925 81.0355 9.51303 81.2588 9.51303H84.0294C84.273 9.51303 84.4684 9.5925 84.613 9.74887C84.7576 9.90524 84.8312 10.0975 84.8312 10.3231V26.2448C84.8312 26.4704 84.7576 26.6601 84.613 26.819C84.4684 26.9754 84.273 27.0548 84.0294 27.0548H81.2588V27.0523Z" fill="#FAFAFA"/>
<path id="Vector_4" d="M96.9516 27.3902C95.1705 27.3902 93.6735 27.0749 92.4607 26.4468C91.2479 25.8162 90.3243 24.9293 89.69 23.7808C89.0557 22.6324 88.6929 21.2968 88.6041 19.7664C88.5812 19.3614 88.5711 18.8667 88.5711 18.2822C88.5711 17.6977 88.5812 17.203 88.6041 16.7979C88.6929 15.247 89.0658 13.9038 89.723 12.7682C90.3801 11.6326 91.3139 10.7507 92.5267 10.1201C93.7395 9.49206 95.2136 9.17676 96.9491 9.17676C98.6846 9.17676 100.159 9.49206 101.372 10.1201C102.584 10.7507 103.518 11.6326 104.175 12.7682C104.832 13.9038 105.205 15.247 105.294 16.7979C105.317 17.203 105.327 17.6977 105.327 18.2822C105.327 18.8667 105.317 19.3614 105.294 19.7664C105.205 21.2968 104.843 22.6324 104.208 23.7808C103.574 24.9293 102.65 25.8162 101.438 26.4468C100.227 27.0749 98.7303 27.3902 96.9516 27.3902ZM96.9516 24.05C98.1315 24.05 99.0424 23.6732 99.6894 22.9195C100.334 22.1658 100.692 21.0584 100.758 19.5972C100.78 19.2589 100.791 18.8205 100.791 18.2822C100.791 17.7439 100.778 17.3029 100.758 16.9671C100.692 15.506 100.334 14.3985 99.6894 13.6449C99.0449 12.8912 98.1315 12.5144 96.9516 12.5144C95.7718 12.5144 94.8584 12.8912 94.2139 13.6449C93.5695 14.3985 93.2117 15.506 93.1458 16.9671C93.1229 17.3055 93.1128 17.7439 93.1128 18.2822C93.1128 18.8205 93.1229 19.2614 93.1458 19.5972C93.2117 21.0584 93.5695 22.1658 94.2139 22.9195C94.8584 23.6732 95.7718 24.05 96.9516 24.05Z" fill="#FAFAFA"/>
<path id="Vector_5" d="M108.3 27.0519C108.1 27.0519 107.927 26.9802 107.782 26.8315C107.638 26.6854 107.564 26.511 107.564 26.3085C107.564 26.2419 107.582 26.1624 107.615 26.0727C107.648 25.983 107.709 25.8702 107.798 25.7343L113.474 18.0439L108.199 10.8252C108.133 10.7124 108.082 10.6124 108.049 10.5227C108.016 10.433 107.998 10.3433 107.998 10.2535C107.998 10.051 108.069 9.87671 108.216 9.73059C108.361 9.58447 108.533 9.5127 108.734 9.5127H111.639C111.905 9.5127 112.106 9.57935 112.24 9.71521C112.375 9.85107 112.474 9.97412 112.54 10.0869L116.313 15.1472L120.086 10.0869C120.174 9.97412 120.281 9.85107 120.403 9.71521C120.525 9.57935 120.72 9.5127 120.986 9.5127H123.757C123.957 9.5127 124.13 9.58704 124.275 9.73059C124.419 9.87671 124.493 10.0408 124.493 10.2202C124.493 10.333 124.475 10.433 124.442 10.5227C124.409 10.6124 124.358 10.715 124.292 10.8252L118.951 18.1106L124.66 25.7343C124.749 25.8702 124.81 25.983 124.843 26.0727C124.876 26.1624 124.894 26.2419 124.894 26.3085C124.894 26.511 124.82 26.6854 124.676 26.8315C124.531 26.9776 124.358 27.0519 124.158 27.0519H121.121C120.875 27.0519 120.687 26.9904 120.552 26.8674C120.418 26.7443 120.306 26.6264 120.218 26.5136L116.211 21.1508L112.139 26.5136C112.05 26.6264 111.944 26.7443 111.822 26.8674C111.7 26.9904 111.505 27.0519 111.238 27.0519H108.3Z" fill="#FAFAFA"/>
<path id="Vector_6" d="M128.533 6.61119C128.31 6.61119 128.122 6.53172 127.965 6.37535C127.807 6.21898 127.731 6.02672 127.731 5.80113V3.37353C127.731 3.14795 127.81 2.95825 127.965 2.79932C128.119 2.64294 128.31 2.56348 128.533 2.56348H131.57C131.814 2.56348 132.014 2.64294 132.171 2.79932C132.326 2.95569 132.405 3.14795 132.405 3.37353V5.80113C132.405 6.02672 132.326 6.21642 132.171 6.37535C132.017 6.53172 131.816 6.61119 131.57 6.61119H128.533ZM128.667 27.0523C128.444 27.0523 128.256 26.9728 128.099 26.8164C127.942 26.6601 127.866 26.4678 127.866 26.2422V10.3231C127.866 10.0975 127.944 9.90781 128.099 9.74887C128.254 9.5925 128.444 9.51303 128.667 9.51303H131.438C131.682 9.51303 131.877 9.5925 132.022 9.74887C132.166 9.90524 132.24 10.0975 132.24 10.3231V26.2448C132.24 26.4704 132.166 26.6601 132.022 26.819C131.877 26.9754 131.682 27.0548 131.438 27.0548H128.667V27.0523Z" fill="#FAFAFA"/>
<path id="Vector_7" d="M143.257 27.3902C141.922 27.3902 140.78 27.2338 139.834 26.9185C138.888 26.6032 138.114 26.211 137.512 25.7367C136.911 25.2651 136.467 24.7934 136.178 24.3192C135.888 23.8475 135.731 23.4527 135.711 23.1374C135.688 22.8913 135.762 22.6939 135.929 22.5478C136.097 22.4017 136.279 22.3299 136.48 22.3299H139.118C139.207 22.3299 139.286 22.3402 139.352 22.3632C139.418 22.3863 139.507 22.4529 139.618 22.5657C139.908 22.8144 140.215 23.0707 140.537 23.3425C140.859 23.6116 141.242 23.8423 141.689 24.0346C142.133 24.2269 142.691 24.3217 143.358 24.3217C144.226 24.3217 144.954 24.1474 145.545 23.7988C146.134 23.4501 146.431 22.9503 146.431 22.2966C146.431 21.8249 146.301 21.4429 146.048 21.1507C145.791 20.8585 145.319 20.5944 144.629 20.3586C143.939 20.1228 142.96 19.869 141.691 19.5998C140.445 19.3076 139.41 18.9359 138.586 18.4873C137.761 18.0387 137.15 17.4747 136.749 16.8005C136.348 16.1263 136.147 15.3393 136.147 14.4396C136.147 13.5628 136.409 12.7246 136.931 11.9274C137.454 11.1301 138.233 10.4713 139.268 9.95349C140.303 9.43567 141.587 9.17676 143.125 9.17676C144.327 9.17676 145.373 9.328 146.263 9.63306C147.154 9.93554 147.892 10.3124 148.483 10.7635C149.072 11.2147 149.524 11.6684 149.836 12.1299C150.148 12.5913 150.313 12.9912 150.336 13.327C150.358 13.5757 150.29 13.7705 150.135 13.9166C149.978 14.0627 149.8 14.1371 149.6 14.1371H147.129C147.017 14.1371 146.918 14.114 146.829 14.0704C146.74 14.0268 146.652 13.9704 146.563 13.9012C146.317 13.6756 146.05 13.4347 145.761 13.1758C145.472 12.9169 145.122 12.699 144.708 12.517C144.297 12.3375 143.757 12.2478 143.089 12.2478C142.244 12.2478 141.597 12.4324 141.153 12.8041C140.707 13.1758 140.486 13.6423 140.486 14.2037C140.486 14.5857 140.593 14.9189 140.803 15.1983C141.014 15.4803 141.443 15.7444 142.09 15.9905C142.734 16.2391 143.713 16.4955 145.028 16.7672C146.52 17.0363 147.705 17.4362 148.582 17.9643C149.46 18.4924 150.084 19.0999 150.452 19.7869C150.82 20.474 151.003 21.2327 151.003 22.0633C151.003 23.0759 150.709 23.9859 150.117 24.796C149.526 25.606 148.659 26.2418 147.514 26.7006C146.365 27.1595 144.947 27.3902 143.257 27.3902Z" fill="#FAFAFA"/>
</g>
</g>
<g id="Group_4">
<path id="Vector_8" d="M9.3677 25.0066C8.93382 25.0066 8.49995 24.84 8.16757 24.5042L0.497432 16.7548C-0.164793 16.0858 -0.164793 14.9988 0.497432 14.3298L13.2193 1.47912C14.1606 0.525511 15.4165 0 16.7511 0C18.0857 0 19.3391 0.525511 20.283 1.47912C21.2269 2.43273 21.747 3.69908 21.747 5.04747C21.747 6.39585 21.2269 7.6622 20.283 8.61581L11.9988 16.983C11.3366 17.652 10.2608 17.652 9.59859 16.983C8.93636 16.3139 8.93636 15.227 9.59859 14.5579L17.8802 6.19077C18.1821 5.88572 18.3496 5.47813 18.3496 5.04747C18.3496 4.61424 18.1821 4.20921 17.8802 3.90416C17.5783 3.59911 17.1748 3.42992 16.7486 3.42992C16.3223 3.42992 15.9189 3.59911 15.617 3.90416L4.09781 15.5423L10.5678 22.0791C11.23 22.7482 11.23 23.8351 10.5678 24.5042C10.2354 24.84 9.80157 25.0066 9.3677 25.0066Z" fill="#FAFAFA"/>
<path id="Vector_9" d="M17.2076 30.9998C15.873 30.9998 14.6196 30.4742 13.6757 29.5206C12.7318 28.567 12.2117 27.3007 12.2117 25.9523C12.2117 24.6039 12.7318 23.3375 13.6757 22.3839L21.9573 14.0168C22.6195 13.3477 23.6953 13.3477 24.3576 14.0168C25.0198 14.6858 25.0198 15.7728 24.3576 16.4418L16.0759 24.809C15.774 25.114 15.6066 25.5216 15.6066 25.9523C15.6066 26.3855 15.774 26.7905 16.0759 27.0956C16.3779 27.4006 16.7813 27.5698 17.2076 27.5698C17.6338 27.5698 18.0373 27.4006 18.3392 27.0956L29.8609 15.4549L23.3909 8.91805C22.7286 8.24898 22.7286 7.16207 23.3909 6.49301C24.0531 5.82394 25.1289 5.82394 25.7911 6.49301L33.4613 14.2424C33.7784 14.5628 33.9586 15.0012 33.9586 15.4549C33.9586 15.9086 33.781 16.347 33.4613 16.6674L20.7394 29.5206C19.7956 30.4742 18.5422 30.9998 17.2076 30.9998Z" fill="#FAFAFA"/>
</g>
</g>
</g>
<defs>
<clipPath id="clip0_85_13">
<rect width="151" height="31" fill="white"/>
</clipPath>
</defs>
</svg>
