<svg width="204" height="120" viewBox="0 0 204 120" fill="none" xmlns="http://www.w3.org/2000/svg">
<g id="Go" filter="url(#filter0_dddd_192_2482)">
<rect x="7" y="2.08337" width="190" height="91.8333" rx="8" fill="white"/>
<g id="Group">
<path id="Vector" fill-rule="evenodd" clip-rule="evenodd" d="M77.5248 50.4055C76.3916 49.9463 77.5248 48.7681 78.0627 48.4096C79.1958 47.6935 80.6907 47.4375 82.0642 47.5303L81.9451 49.6288C81.8856 50.7035 81.5869 50.2443 80.6907 50.8061C79.7349 51.3688 77.6461 52.1875 77.5259 50.3957L77.5248 50.4055ZM119.866 72.7171C121.48 73.5964 124.464 76.197 122.016 77.4748C119.686 79.3174 118.372 75.4281 116.281 74.9152C117.178 73.8914 118.312 72.9193 119.864 72.7151L119.866 72.7171ZM90.7252 75.6851C88.8137 75.941 87.7378 77.424 86.1274 78.1929C84.6349 78.9608 84.0374 77.9369 83.9184 77.7337C83.678 77.6312 83.678 77.8363 83.3209 77.5383C81.9474 75.645 84.7539 74.2636 86.2476 73.3423C88.3376 72.932 89.6516 74.4678 90.7263 75.687L90.7252 75.6851ZM128.885 50.1495C128.766 51.9403 126.676 51.1216 125.721 50.5599C124.824 49.9971 124.527 50.4573 124.466 49.3826L124.347 47.2841C125.721 47.1816 127.213 47.4375 128.349 48.1634C128.946 48.5737 130.02 49.6972 128.887 50.1593L128.885 50.1495Z" fill="#F6D2A2"/>
<path id="Vector_2" d="M78.6617 51.6833C78.2439 51.6833 77.4679 51.53 77.3477 50.5061C76.9895 50.3107 76.8704 50.047 76.8704 49.8906C76.8109 49.2752 77.5869 48.56 78.0036 48.3041C78.9593 47.6886 80.2126 47.3828 81.5266 47.3828H82.3026V47.5362C82.3621 48.0989 82.3026 48.6616 82.2431 49.1736C82.2431 49.3269 82.2431 49.4803 82.1836 49.6327C82.124 50.4006 81.9432 50.512 81.5266 50.6566C81.3469 50.7074 81.1683 50.7592 80.8696 50.9633C80.572 51.1167 79.5556 51.6794 78.6605 51.6794L78.6617 51.6833ZM81.5277 47.6915C80.2733 47.6915 79.139 47.9983 78.2428 48.5708C77.825 48.8267 77.2275 49.45 77.2871 49.8408C77.2871 49.9942 77.4061 50.1476 77.6453 50.2511L77.7643 50.3019V50.4045C77.8239 51.2232 78.3023 51.3258 78.6605 51.3258C79.258 51.3258 80.0936 50.9672 80.6315 50.6615C80.9898 50.4661 81.229 50.4055 81.4075 50.3547C81.7051 50.2521 81.7658 50.2521 81.8253 49.6386C81.8253 49.4852 81.8253 49.3318 81.8848 49.1794C81.9443 48.7203 81.9443 48.2074 81.9443 47.7462C81.7646 47.6954 81.6467 47.6954 81.5266 47.6954L81.5277 47.6915Z" fill="black"/>
<path id="Vector_3" fill-rule="evenodd" clip-rule="evenodd" d="M77.5254 50.4053C77.823 50.3027 78.1824 50.2519 78.3609 49.995L77.5254 50.4053Z" fill="#C6B198"/>
<path id="Vector_4" d="M77.5253 50.5598C77.4658 50.5598 77.3456 50.509 77.3456 50.4573C77.2861 50.3547 77.3456 50.2619 77.4647 50.2619C77.5242 50.2619 77.5837 50.2111 77.5837 50.2111C77.824 50.1085 78.061 50.0577 78.1812 49.9043C78.2407 49.8535 78.3609 49.8017 78.4787 49.8535C78.5383 49.9043 78.5978 50.0069 78.5383 50.1095C78.3412 50.3168 78.0677 50.4611 77.7622 50.5188L77.6432 50.5696H77.5242L77.5253 50.5598Z" fill="black"/>
<path id="Vector_5" fill-rule="evenodd" clip-rule="evenodd" d="M82.4237 28.7594C74.3017 26.8055 80.3336 17.9622 86.8417 21.5955L82.4237 28.7594Z" fill="#6AD7E5"/>
<path id="Vector_6" d="M82.5409 28.9637L82.3612 28.9129C78.1812 27.889 78.2407 25.3304 78.3597 24.5635C78.6573 22.6096 80.8091 20.5717 83.674 20.5717C84.8071 20.5717 85.883 20.8784 86.9589 21.4929L87.1386 21.5955L82.5409 28.9637ZM83.674 20.9292C80.9865 20.9292 79.0156 22.8225 78.718 24.6123C78.4204 26.4549 79.7332 27.8871 82.3005 28.5524L86.54 21.6453C85.6438 21.1862 84.6892 20.9292 83.674 20.9292Z" fill="black"/>
<path id="Vector_7" fill-rule="evenodd" clip-rule="evenodd" d="M118.434 20.9387C124.824 17.0993 130.676 25.8 123.211 28.0021L118.434 20.9387Z" fill="#6AD7E5"/>
<g id="Group_2">
<path id="Vector_8" d="M123.146 28.1976L118.19 20.8704L118.37 20.7679C119.515 20.1035 120.64 19.744 121.774 19.744C124.521 19.744 126.492 21.6979 126.91 23.5834C127.09 24.3513 127.268 26.9608 123.327 28.0774L123.148 28.18L123.146 28.1976ZM118.728 21.0336L123.326 27.84C125.655 27.1239 126.849 25.5881 126.491 23.7368C126.133 21.9978 124.282 20.2061 121.773 20.2061C120.758 20.1553 119.742 20.4015 118.728 21.0248V21.0336ZM120.768 78.1412C119.812 78.1412 118.977 77.3225 118.25 76.5547C117.593 75.9392 116.936 75.2846 116.219 75.0697L115.922 75.0189L116.102 74.8235C116.818 73.9443 118.013 72.8276 119.804 72.5716H119.864L119.923 72.6224C120.939 73.1852 123.148 74.7717 123.088 76.2567C123.088 76.8194 122.73 77.2805 122.073 77.6381C121.655 77.9966 121.237 78.15 120.759 78.15L120.768 78.1412ZM116.588 74.8147C117.305 75.0707 117.902 75.736 118.499 76.2997C119.216 77.0676 119.932 77.7329 120.709 77.7329C121.067 77.7329 121.425 77.5795 121.784 77.2737H121.844C122.382 76.9669 122.679 76.6094 122.679 76.1482C122.679 74.971 120.948 73.487 119.753 72.8217C118.677 73.0777 117.603 73.701 116.588 74.8176V74.8147ZM122.022 77.6283C121.963 77.6283 121.903 77.5775 121.843 77.5257C121.715 77.3144 121.615 77.0916 121.545 76.8614C121.365 76.4511 121.187 76.0427 120.829 75.736C120.769 75.6852 120.769 75.5826 120.829 75.48C120.888 75.4292 121.008 75.4292 121.126 75.48C121.544 75.8386 121.783 76.2987 121.962 76.7501L122.259 77.3655C122.319 77.4681 122.259 77.5609 122.2 77.6215H122.02L122.022 77.6283Z" fill="black"/>
<path id="Vector_9" d="M85.1076 78.6023C84.3316 78.6023 83.9138 78.0396 83.7937 77.8344H83.7341C83.5544 77.8344 83.4366 77.7836 83.1962 77.5785V77.5277C81.8822 75.7369 84.1519 74.3545 85.6456 73.4245L86.1835 73.1177H86.3026C86.5315 73.0669 86.7204 73.0669 86.9596 73.0669C88.7508 73.0669 89.8863 74.3975 90.8511 75.4722L91.1487 75.8307L90.7905 75.8815C89.6459 76.0349 88.8195 76.6494 87.984 77.2629C87.446 77.6732 86.9081 78.0308 86.3129 78.3376C85.8356 78.491 85.4773 78.5935 85.1191 78.5935L85.1076 78.6023ZM83.7937 77.5277C83.8532 77.5277 83.9127 77.5277 84.0226 77.5785H84.0821L84.1416 77.6293C84.2607 77.7827 84.5594 78.2448 85.1569 78.2448C85.4545 78.2448 85.7543 78.1422 86.0531 77.9888C86.6505 77.7328 87.1976 77.3245 87.6555 76.965C88.4315 76.4022 89.2579 75.7877 90.3429 75.5318C89.4467 74.5079 88.372 73.3825 86.8795 73.3825C86.6998 73.3825 86.5212 73.3825 86.3415 73.4333L85.8642 73.74C84.311 74.6613 82.4007 75.8385 83.535 77.3743C83.5945 77.4769 83.654 77.5277 83.7639 77.5277H83.7937ZM83.9127 77.8862C83.7937 77.8862 83.6838 77.7836 83.733 77.6908C83.7925 77.1789 84.0913 76.8116 84.39 76.4208C84.5513 76.2275 84.6912 76.0218 84.8078 75.8063C84.8673 75.7037 84.9875 75.7037 85.0367 75.7037C85.1557 75.7545 85.1557 75.8571 85.1557 75.8991C85.0367 76.1551 84.8581 76.3583 84.6784 76.5634C84.3808 76.922 84.1405 77.2278 84.081 77.6381C84.081 77.8335 84.0214 77.894 83.9013 77.894L83.9127 77.8862ZM82.7796 26.354C81.7037 25.8949 80.9288 25.2286 81.5858 24.1539C82.1832 23.1819 83.3175 23.2747 84.3923 23.7436L82.7899 26.3521L82.7796 26.354ZM121.535 25.4328C122.611 24.9736 123.386 24.3073 122.729 23.2327C122.131 22.2606 120.997 22.3534 119.922 22.8224L121.525 25.4308L121.535 25.4328ZM127.805 51.4197C126.909 51.4197 125.894 50.8569 125.596 50.7035C125.298 50.5502 125.119 50.4476 124.939 50.3968C124.462 50.2434 124.341 50.1408 124.282 49.3729C124.282 49.2196 124.282 49.0662 124.222 48.9138C124.163 48.4019 124.103 47.8391 124.163 47.2764V47.1201H124.939C126.253 47.1201 127.506 47.4269 128.462 48.0414C128.88 48.2973 129.656 49.0134 129.607 49.6279C129.607 49.8233 129.488 50.0871 129.129 50.2434C129.01 51.2673 128.233 51.4206 127.815 51.4206L127.805 51.4197ZM124.52 47.4796L124.58 48.9128C124.58 49.0662 124.58 49.2196 124.639 49.372C124.699 49.9874 124.758 49.9874 125.057 50.0881C125.237 50.1389 125.475 50.2415 125.833 50.3948C126.371 50.7016 127.206 51.0592 127.804 51.0592C128.162 51.0592 128.639 50.9566 128.7 50.1379V50.0353L128.819 49.9845C129.048 49.8819 129.177 49.7891 129.177 49.5742C129.237 49.1639 128.639 48.5504 128.222 48.3042C127.325 47.7414 126.132 47.4249 124.937 47.4249C124.818 47.4757 124.708 47.4757 124.519 47.4757L124.52 47.4796Z" fill="black"/>
</g>
<path id="Vector_10" fill-rule="evenodd" clip-rule="evenodd" d="M128.882 50.1496C128.585 50.047 128.225 49.9962 128.047 49.7393L128.882 50.1496Z" fill="#C6B198"/>
<path id="Vector_11" d="M128.882 50.3449H128.823L128.704 50.2941C128.406 50.1916 128.106 50.1408 127.928 49.8838C127.868 49.833 127.868 49.6884 127.987 49.6279C128.047 49.5771 128.228 49.577 128.285 49.6787C128.404 49.832 128.643 49.874 128.882 49.9854C128.942 49.9854 129.001 50.0362 129.001 50.0362C129.12 50.087 129.181 50.1896 129.12 50.2316C129.06 50.2736 128.941 50.3342 128.88 50.3342L128.882 50.3449Z" fill="black"/>
<path id="Vector_12" fill-rule="evenodd" clip-rule="evenodd" d="M102.428 17.2948C110.55 17.2948 118.134 18.2669 122.135 24.9707C125.717 32.4424 124.404 40.5277 125.001 48.4595C125.478 55.2659 126.493 63.0942 122.851 69.3897C118.971 75.991 109.296 77.6801 101.353 77.4241C95.0826 77.2287 87.5581 75.4702 83.9744 70.5659C79.8539 64.8342 81.7654 56.2888 82.063 49.8917C82.4212 42.3184 79.6743 34.6933 82.6009 27.3242C85.5276 19.6063 93.6484 17.8478 102.427 17.2938" fill="#6AD7E5"/>
<path id="Vector_13" d="M102.727 77.6312H101.234C98.7843 77.5804 95.0828 77.2209 91.4396 75.9411C87.9165 74.713 85.3481 72.9731 83.6759 70.6704C80.3314 66.0133 80.9289 59.6172 81.4668 53.9353L81.7644 49.8926C81.8835 47.2314 81.6454 44.4686 81.3467 41.8582C80.8694 37.0477 80.3909 32.0838 82.2429 27.2723C83.6759 23.6898 86.2443 21.1312 90.1256 19.4938C93.1702 18.2238 96.9335 17.4979 102.307 17.1492C110.308 17.0984 118.251 18.0704 122.253 24.8671C124.881 30.3429 124.881 36.229 124.94 41.908C124.94 44.0573 124.94 46.2574 125.12 48.4067C125.179 49.071 125.239 49.7373 125.239 50.4026C125.716 56.6551 126.254 63.7087 122.91 69.4395C121.239 72.3566 118.312 74.5059 114.311 75.8873C111.086 77.0128 107.025 77.6263 102.725 77.6263L102.727 77.6312ZM102.43 17.451C94.0091 18.0138 85.7682 19.6003 82.7236 27.3788C80.8728 32.1366 81.3501 37.0506 81.8274 41.8084C82.0678 44.4696 82.3653 47.1816 82.2452 49.8936C82.1856 51.1636 82.0655 52.5021 81.9476 53.9362C81.4096 59.5654 80.8144 65.9107 84.0971 70.4662C85.4706 72.3596 89.8887 76.8633 101.296 77.2209H102.788C115.985 77.2209 120.884 72.2062 122.674 69.2392C125.959 63.61 125.421 56.5388 125.003 50.3547C124.944 49.6904 124.884 49.0241 124.884 48.3588C124.765 46.2095 124.704 44.0094 124.704 41.8601C124.645 36.231 124.645 30.3458 122.076 24.9218C120.285 21.8932 117.598 19.8553 113.895 18.6693C110.072 17.5947 105.773 17.4413 102.43 17.4413V17.451Z" fill="black"/>
<path id="Vector_14" fill-rule="evenodd" clip-rule="evenodd" d="M103.86 26.6102C103.383 19.9063 115.386 18.0638 117.177 24.6143C119.148 31.9414 105.293 33.8757 103.86 26.6102ZM87.3186 27.7776C85.4678 19.9991 100.038 18.565 100.576 26.1403C100.994 32.4855 89.2301 34.0731 87.3186 27.7776Z" fill="white"/>
<path id="Vector_15" d="M110.429 31.3685C107.741 31.3685 104.337 30.1405 103.621 26.6596C103.502 25.0222 104.098 23.5382 105.353 22.4118C106.726 21.1418 108.816 20.4159 110.966 20.4159C113.484 20.4159 116.46 21.5413 117.295 24.6637C117.772 26.4026 117.414 27.9384 116.28 29.1576C115.026 30.4883 112.816 31.3577 110.428 31.3577L110.429 31.3685ZM104.039 26.6107C104.336 28.0439 105.115 29.1703 106.368 29.9881C107.444 30.7042 108.935 31.0627 110.429 31.0627C112.638 31.0627 114.778 30.244 115.982 28.9642C117.058 27.8388 117.356 26.3558 116.938 24.7164C116.162 21.7993 113.356 20.7764 110.967 20.7764C108.936 20.7764 106.965 21.4925 105.653 22.6697C104.508 23.6936 103.921 25.075 104.05 26.6098L104.039 26.6107ZM109.235 26.304C109.235 27.3278 108.339 28.1465 107.264 28.1465C106.189 28.1465 105.293 27.3278 105.293 26.304C105.293 25.2801 106.189 24.4614 107.264 24.4614C108.339 24.4614 109.235 25.2801 109.235 26.304ZM93.5887 31.983C91.0214 31.983 88.0352 30.9083 87.0795 27.8378C86.6617 26.047 87.0795 24.4185 88.2733 23.1807C89.5873 21.7993 91.7368 20.9806 94.0648 20.9806C97.1701 20.9806 100.455 22.5671 100.703 26.1584C100.822 27.6434 100.286 28.972 99.101 30.0467C97.8465 31.2239 95.7565 32.0006 93.607 32.0006L93.5887 31.983ZM94.0671 21.3293C91.8581 21.3293 89.8276 22.0972 88.5732 23.3761C87.4286 24.5533 87.0806 26.0373 87.4973 27.7254C88.3328 30.5908 91.2 31.6137 93.5887 31.6137C95.6192 31.6137 97.5901 30.9494 98.8538 29.7712C99.3892 29.2897 99.799 28.717 100.056 28.0905C100.313 27.4641 100.412 26.7983 100.346 26.1369C100.227 23.9368 98.4955 21.3264 94.0763 21.3264L94.0671 21.3293ZM92.5746 26.7534C92.5746 27.7772 91.6784 28.5959 90.6036 28.5959C89.5289 28.5959 88.6327 27.7772 88.6327 26.7534C88.6327 25.7295 89.5289 24.9108 90.6036 24.9108C91.6784 24.9108 92.5746 25.7295 92.5746 26.7534Z" fill="black"/>
<path id="Vector_16" fill-rule="evenodd" clip-rule="evenodd" d="M105.533 35.2999C105.533 36.2212 105.774 37.2959 105.593 38.3285C105.295 38.7877 104.757 38.8404 104.279 38.9928C103.622 38.8902 103.085 38.5336 102.786 38.0208C102.607 36.8953 102.846 35.7689 102.905 34.6434L105.533 35.3078V35.2999Z" fill="white"/>
<path id="Vector_17" d="M104.277 39.2077C103.501 39.1051 102.903 38.6958 102.606 38.133C102.487 37.3143 102.546 36.5465 102.606 35.7883C102.665 35.4298 102.665 35.0722 102.665 34.7137V34.5183L105.71 35.337V35.4396C105.71 35.7463 105.769 36.0551 105.769 36.4116C105.829 37.076 105.888 37.793 105.769 38.4584V38.5092C105.529 38.9195 105.112 39.0211 104.694 39.1735C104.575 39.1227 104.453 39.1735 104.276 39.2243L104.277 39.2077ZM102.963 37.9796C103.203 38.4388 103.679 38.7475 104.217 38.8589C104.336 38.8081 104.458 38.8081 104.515 38.7563C104.873 38.6537 105.172 38.5609 105.351 38.2972C105.47 37.6817 105.41 37.0271 105.351 36.3433C105.351 36.0365 105.291 35.7278 105.291 35.464L103.021 34.8485C103.021 35.1553 102.962 35.464 102.962 35.7278C102.902 36.5465 102.843 37.2616 102.962 37.9796H102.963Z" fill="black"/>
<path id="Vector_18" fill-rule="evenodd" clip-rule="evenodd" d="M91.9272 27.1718C91.9272 27.4277 91.6983 27.6309 91.4499 27.6309C91.2016 27.6309 90.9727 27.4355 90.9727 27.1718C90.9727 26.908 91.2016 26.7126 91.4499 26.7126C91.7475 26.7126 91.9272 26.908 91.9272 27.1718ZM108.638 26.7028C108.638 26.9588 108.458 27.162 108.161 27.162C107.932 27.162 107.684 26.9666 107.684 26.7028C107.684 26.439 107.863 26.2437 108.161 26.2437C108.39 26.2437 108.638 26.439 108.638 26.7028ZM99.7997 35.2072C98.9034 36.9979 100.277 40.6312 102.666 37.9719C102.486 36.8465 102.725 35.7201 102.785 34.5946L99.8088 35.2101L99.7997 35.2072Z" fill="white"/>
<path id="Vector_19" d="M101.054 39.0964C100.636 39.0964 100.218 38.901 99.9209 38.4809C99.2639 37.6622 99.1449 36.1362 99.6233 35.1544L99.6828 35.0518L102.968 34.3357V34.5311L102.908 35.6565C102.849 36.4244 102.789 37.1415 102.908 37.9084V37.9592L102.849 38.01C102.251 38.7261 101.655 39.0846 101.057 39.0846L101.054 39.0964ZM99.9781 35.3605C99.6199 36.2398 99.7378 37.6124 100.276 38.2777C100.516 38.5845 100.753 38.7369 101.052 38.7369C101.47 38.7369 101.948 38.4301 102.425 37.9182C102.306 37.1503 102.366 36.3844 102.485 35.6663L102.544 34.787L99.977 35.3498L99.9781 35.3605Z" fill="black"/>
<path id="Vector_20" fill-rule="evenodd" clip-rule="evenodd" d="M100.1 31.7275C98.4861 31.8301 97.1733 33.5182 98.01 34.7981C99.1431 36.537 101.592 34.6447 103.146 34.7981C104.937 34.8489 106.37 36.4354 107.804 35.1048C109.418 33.6199 107.088 32.1876 105.355 31.5223L100.101 31.7177L100.1 31.7275Z" fill="#F6D2A2"/>
<g id="Group_3">
<path id="Vector_21" d="M106.548 35.8206C106.01 35.8206 105.472 35.6252 104.934 35.4103C104.396 35.1954 103.801 35 103.143 35H102.963C102.486 35 101.948 35.1534 101.35 35.3585C100.693 35.5539 100.036 35.7171 99.4381 35.7171C98.7216 35.7171 98.1836 35.4611 97.8242 34.8984C97.4064 34.2829 97.466 33.5678 97.8837 32.9025C98.361 32.1346 99.1977 31.6744 100.093 31.5719L105.468 31.3765C106.782 31.8356 108.274 32.7071 108.573 33.7211C108.692 34.2331 108.513 34.745 108.035 35.2061C107.557 35.6672 107.079 35.8216 106.542 35.8216L106.548 35.8206ZM103.204 34.6952C103.861 34.6952 104.518 34.9511 105.115 35.1543C105.653 35.3497 106.13 35.5129 106.608 35.5129C107.025 35.5129 107.384 35.3595 107.741 35.0537C107.925 34.9042 108.064 34.7194 108.147 34.5146C108.23 34.3098 108.254 34.091 108.218 33.8765C107.978 32.9972 106.547 32.1864 105.412 31.778L100.215 31.9734C99.4392 32.0242 98.7227 32.4853 98.3038 33.0988C97.9455 33.6616 97.9455 34.2761 98.2443 34.789C98.5419 35.2481 98.9013 35.4533 99.4987 35.4533C100.037 35.4533 100.632 35.2579 101.23 35.0947C101.887 34.8993 102.424 34.7362 103.022 34.7362C103.022 34.6336 103.081 34.6336 103.201 34.6854L103.204 34.6952Z" fill="#231F20"/>
<path id="Vector_22" d="M99.9199 31.6852C99.8009 29.2799 105.174 28.9731 105.772 30.969C106.429 33.0158 100.159 33.4769 99.9199 31.6852Z" fill="black"/>
</g>
</g>
</g>
<defs>
<filter id="filter0_dddd_192_2482" x="0" y="0.083374" width="204" height="119.833" filterUnits="userSpaceOnUse" color-interpolation-filters="sRGB">
<feFlood flood-opacity="0" result="BackgroundImageFix"/>
<feColorMatrix in="SourceAlpha" type="matrix" values="0 0 0 0 0 0 0 0 0 0 0 0 0 0 0 0 0 0 127 0" result="hardAlpha"/>
<feOffset dy="1"/>
<feGaussianBlur stdDeviation="1.5"/>
<feColorMatrix type="matrix" values="0 0 0 0 0.113725 0 0 0 0 0.243137 0 0 0 0 0.447059 0 0 0 0.04 0"/>
<feBlend mode="normal" in2="BackgroundImageFix" result="effect1_dropShadow_192_2482"/>
<feColorMatrix in="SourceAlpha" type="matrix" values="0 0 0 0 0 0 0 0 0 0 0 0 0 0 0 0 0 0 127 0" result="hardAlpha"/>
<feOffset dy="5"/>
<feGaussianBlur stdDeviation="2.5"/>
<feColorMatrix type="matrix" values="0 0 0 0 0.113725 0 0 0 0 0.243137 0 0 0 0 0.447059 0 0 0 0.03 0"/>
<feBlend mode="normal" in2="effect1_dropShadow_192_2482" result="effect2_dropShadow_192_2482"/>
<feColorMatrix in="SourceAlpha" type="matrix" values="0 0 0 0 0 0 0 0 0 0 0 0 0 0 0 0 0 0 127 0" result="hardAlpha"/>
<feOffset dy="11"/>
<feGaussianBlur stdDeviation="3"/>
<feColorMatrix type="matrix" values="0 0 0 0 0.113725 0 0 0 0 0.243137 0 0 0 0 0.447059 0 0 0 0.02 0"/>
<feBlend mode="normal" in2="effect2_dropShadow_192_2482" result="effect3_dropShadow_192_2482"/>
<feColorMatrix in="SourceAlpha" type="matrix" values="0 0 0 0 0 0 0 0 0 0 0 0 0 0 0 0 0 0 127 0" result="hardAlpha"/>
<feOffset dy="19"/>
<feGaussianBlur stdDeviation="3.5"/>
<feColorMatrix type="matrix" values="0 0 0 0 0.113725 0 0 0 0 0.243137 0 0 0 0 0.447059 0 0 0 0.01 0"/>
<feBlend mode="normal" in2="effect3_dropShadow_192_2482" result="effect4_dropShadow_192_2482"/>
<feBlend mode="normal" in="SourceGraphic" in2="effect4_dropShadow_192_2482" result="shape"/>
</filter>
</defs>
</svg>
