<svg width="204" height="120" viewBox="0 0 204 120" fill="none" xmlns="http://www.w3.org/2000/svg">
<g id="Java" filter="url(#filter0_dddd_192_2413)">
<rect x="7" y="2.08337" width="190" height="91.8333" rx="8" fill="white"/>
<g id="Group 35449">
<path id="Vector" d="M68.7823 61.719C68.7823 61.719 66.7388 62.8864 70.2365 63.2821C74.4742 63.7569 76.6397 63.6885 81.3089 62.821C81.3089 62.821 82.5369 63.5771 84.251 64.2327C73.7828 68.6407 60.5599 63.9787 68.7823 61.7199V61.719ZM67.5026 55.9657C67.5026 55.9657 65.2211 57.6324 68.7109 57.988C73.2372 58.4472 76.8123 58.4843 82.9972 57.3041C82.9972 57.3041 83.8533 58.156 85.1994 58.623C72.5418 62.2592 58.446 58.9102 67.5026 55.9559" fill="#5382A1"/>
<path id="Vector_2" d="M78.2896 46.2077C80.8687 49.1259 77.612 51.7519 77.612 51.7519C77.612 51.7519 84.161 48.4303 81.1534 44.2685C78.3441 40.39 76.1896 38.4615 87.8521 31.8153C87.8521 31.8153 69.5464 36.3073 78.2896 46.2077Z" fill="#E76F00"/>
<path id="Vector_3" d="M92.1335 65.9743C92.1335 65.9743 93.6453 67.1985 90.467 68.1461C84.4259 69.9437 65.3186 70.4878 60.0106 68.2174C58.1031 67.4017 61.6811 66.2694 62.806 66.032C63.9795 65.7819 64.651 65.8288 64.651 65.8288C62.5282 64.3604 50.9361 68.7127 58.7627 69.9593C80.1059 73.3591 97.6697 68.4275 92.1325 65.9734L92.1335 65.9743ZM69.7666 50.0051C69.7666 50.0051 60.0483 52.2736 66.3245 53.0971C68.975 53.4459 74.2583 53.3668 79.1804 52.9604C83.2028 52.6282 87.2411 51.918 87.2411 51.918C87.2411 51.918 85.8226 52.5139 84.7969 53.2027C74.9268 55.7525 55.8612 54.5665 61.3508 51.958C65.9932 49.753 69.7666 50.0041 69.7666 50.0041V50.0051ZM87.2005 59.5802C97.2332 54.4571 92.5948 49.5342 89.357 50.1976C88.5634 50.3597 88.2093 50.4906 88.2093 50.4906C88.2093 50.4906 88.5039 50.0373 89.0664 49.841C95.4715 47.6282 100.398 56.367 86.9991 59.8283C86.9991 59.8283 87.1548 59.6916 87.2005 59.5704" fill="#5382A1"/>
<path id="Vector_4" d="M81.1515 21.0834C81.1515 21.0834 86.7065 26.5543 75.8822 34.9434C67.2005 41.6804 73.9022 45.5208 75.8782 49.9102C70.8113 45.4163 67.0924 41.4626 69.5872 37.7824C73.2475 32.3799 83.3934 29.7597 81.1515 21.0844" fill="#E76F00"/>
<path id="Vector_5" d="M70.7522 73.4627C80.3822 74.0684 95.1695 73.1267 95.5196 68.6493C95.5196 68.6493 94.8451 70.3463 87.5611 71.6944C79.3416 73.2146 69.2047 73.0368 63.1914 72.0628C63.1914 72.0628 64.4214 73.0631 70.7502 73.4627" fill="#5382A1"/>
<path id="Vector_6" d="M123.676 55.9642C122.766 56.7331 121.805 57.1659 120.943 57.1659C119.713 57.1659 119.048 56.4468 119.048 55.2921C119.048 54.0435 119.76 53.131 122.619 53.131H123.677V55.9642H123.676ZM126.185 58.7251V50.1787C126.185 47.9952 124.908 46.564 121.828 46.564C120.029 46.564 118.455 46.9968 117.175 47.5487L117.544 49.063C118.552 48.7016 119.856 48.3665 121.137 48.3665C122.913 48.3665 123.675 49.063 123.675 50.5021V51.5826H122.789C118.478 51.5826 116.534 53.2141 116.534 55.6623C116.534 57.7755 117.815 58.9761 120.228 58.9761C121.778 58.9761 122.936 58.3509 124.019 57.4384L124.215 58.7358H126.184L126.185 58.7251ZM134.564 58.7251H131.433L127.663 46.7711H130.397L132.735 54.1158L133.255 56.3237C134.438 53.1291 135.275 49.8895 135.693 46.7691H138.352C137.638 50.7063 136.358 55.0263 134.561 58.7231L134.564 58.7251ZM146.574 55.9642C145.662 56.7331 144.699 57.1659 143.836 57.1659C142.606 57.1659 141.942 56.4468 141.942 55.2921C141.942 54.0435 142.656 53.131 145.513 53.131H146.572V55.9642H146.574ZM149.084 58.7251V50.1787C149.084 47.9952 147.804 46.564 144.727 46.564C142.928 46.564 141.353 46.9968 140.073 47.5487L140.442 49.063C141.45 48.7016 142.757 48.3665 144.037 48.3665C145.809 48.3665 146.574 49.063 146.574 50.5021V51.5826H145.687C141.375 51.5826 139.432 53.2141 139.432 55.6623C139.432 57.7755 140.712 58.9761 143.125 58.9761C144.677 58.9761 145.833 58.3509 146.919 57.4384L147.117 58.7358H149.085L149.084 58.7251ZM113.782 60.7552C113.077 61.7751 111.911 62.5791 110.646 63.0354L109.406 61.6139C110.368 61.1323 111.196 60.3439 111.579 59.6307C111.911 58.9859 112.048 58.1653 112.048 56.1684V42.5194H114.716V55.9798C114.716 58.6352 114.498 59.7089 113.784 60.7552H113.782Z" fill="#E76F00"/>
</g>
</g>
<defs>
<filter id="filter0_dddd_192_2413" x="0" y="0.083374" width="204" height="119.833" filterUnits="userSpaceOnUse" color-interpolation-filters="sRGB">
<feFlood flood-opacity="0" result="BackgroundImageFix"/>
<feColorMatrix in="SourceAlpha" type="matrix" values="0 0 0 0 0 0 0 0 0 0 0 0 0 0 0 0 0 0 127 0" result="hardAlpha"/>
<feOffset dy="1"/>
<feGaussianBlur stdDeviation="1.5"/>
<feColorMatrix type="matrix" values="0 0 0 0 0.113725 0 0 0 0 0.243137 0 0 0 0 0.447059 0 0 0 0.04 0"/>
<feBlend mode="normal" in2="BackgroundImageFix" result="effect1_dropShadow_192_2413"/>
<feColorMatrix in="SourceAlpha" type="matrix" values="0 0 0 0 0 0 0 0 0 0 0 0 0 0 0 0 0 0 127 0" result="hardAlpha"/>
<feOffset dy="5"/>
<feGaussianBlur stdDeviation="2.5"/>
<feColorMatrix type="matrix" values="0 0 0 0 0.113725 0 0 0 0 0.243137 0 0 0 0 0.447059 0 0 0 0.03 0"/>
<feBlend mode="normal" in2="effect1_dropShadow_192_2413" result="effect2_dropShadow_192_2413"/>
<feColorMatrix in="SourceAlpha" type="matrix" values="0 0 0 0 0 0 0 0 0 0 0 0 0 0 0 0 0 0 127 0" result="hardAlpha"/>
<feOffset dy="11"/>
<feGaussianBlur stdDeviation="3"/>
<feColorMatrix type="matrix" values="0 0 0 0 0.113725 0 0 0 0 0.243137 0 0 0 0 0.447059 0 0 0 0.02 0"/>
<feBlend mode="normal" in2="effect2_dropShadow_192_2413" result="effect3_dropShadow_192_2413"/>
<feColorMatrix in="SourceAlpha" type="matrix" values="0 0 0 0 0 0 0 0 0 0 0 0 0 0 0 0 0 0 127 0" result="hardAlpha"/>
<feOffset dy="19"/>
<feGaussianBlur stdDeviation="3.5"/>
<feColorMatrix type="matrix" values="0 0 0 0 0.113725 0 0 0 0 0.243137 0 0 0 0 0.447059 0 0 0 0.01 0"/>
<feBlend mode="normal" in2="effect3_dropShadow_192_2413" result="effect4_dropShadow_192_2413"/>
<feBlend mode="normal" in="SourceGraphic" in2="effect4_dropShadow_192_2413" result="shape"/>
</filter>
</defs>
</svg>
