<svg width="204" height="120" viewBox="0 0 204 120" fill="none" xmlns="http://www.w3.org/2000/svg">
<g id="NETCore" filter="url(#filter0_dddd_192_2476)">
<rect x="7" y="2.08337" width="190" height="91.8333" rx="8" fill="white"/>
<path id="Vector" d="M103.146 79.2625C123.374 79.2625 139.773 65.2658 139.773 48.0001C139.773 30.7343 123.374 16.7377 103.146 16.7377C82.9178 16.7377 66.5195 30.7343 66.5195 48.0001C66.5195 65.2658 82.9178 79.2625 103.146 79.2625Z" fill="#5C2D91"/>
<g id="Group">
<path id="Vector_2" opacity="0.1" d="M77.7569 25.5302C72.7791 29.3164 69.1066 34.1906 67.1354 39.6271C65.1642 45.0637 64.9689 50.8565 66.5708 56.3808C68.1727 61.9051 71.5109 66.9514 76.2255 70.9756C80.9401 74.9997 86.8521 77.8491 93.3243 79.2165C99.7966 80.5839 106.583 80.4173 112.953 78.7348C119.322 77.0523 125.033 73.9176 129.469 69.6688L77.7569 25.5302Z" fill="white"/>
<path id="Vector_3" d="M74.987 53.129C74.7734 53.1319 74.5614 53.0969 74.3643 53.0263C74.1673 52.9556 73.9896 52.8509 73.8425 52.7187C73.6913 52.5912 73.5717 52.4389 73.4911 52.271C73.4105 52.1032 73.3704 51.9231 73.3732 51.7417C73.3717 51.5605 73.4124 51.3808 73.4929 51.213C73.5735 51.0453 73.6923 50.893 73.8425 50.7648C73.9882 50.6303 74.1654 50.5234 74.3625 50.4511C74.5597 50.3787 74.7724 50.3425 74.987 50.3447C75.2013 50.3442 75.4134 50.3813 75.6103 50.4535C75.8072 50.5258 75.9846 50.6317 76.1316 50.7648C76.2844 50.8918 76.4056 51.0437 76.4882 51.2116C76.5708 51.3794 76.613 51.5597 76.6123 51.7417C76.6143 51.9239 76.5727 52.1045 76.4901 52.2725C76.4074 52.4405 76.2854 52.5923 76.1316 52.7187C75.9832 52.8495 75.8053 52.9533 75.6085 53.0238C75.4118 53.0944 75.2004 53.1301 74.987 53.129ZM97.7298 52.8848H94.731L84.0063 38.6799C83.7392 38.3299 83.5166 37.9565 83.3425 37.5662H83.2509C83.3528 38.3772 83.3911 39.1932 83.3654 40.0086V52.8848H80.9388V35.075H84.1093L94.5479 49.0258L95.3949 50.2177H95.4521C95.3313 49.3489 95.2816 48.4741 95.3033 47.5995V35.075H97.7413V52.8848H97.7298ZM114.246 52.8848H103.144V35.075H113.72V36.9605H105.639V42.8808H113.17V44.7565H105.639V50.9309H114.246V52.8848ZM130.614 36.9605H124.547V52.8848H122.109V36.9605H116.112V35.075H130.614V36.9605Z" fill="white"/>
</g>
<path id="Vector_4" d="M96.4141 64.999C95.5878 65.3406 94.6763 65.5049 93.7587 65.4777C93.149 65.5012 92.5404 65.413 91.9738 65.2193C91.4073 65.0255 90.8958 64.7306 90.4737 64.3542C89.6327 63.5507 89.1896 62.5001 89.2376 61.4234C89.2068 60.8404 89.3135 60.2581 89.5514 59.711C89.7893 59.1639 90.1536 58.6632 90.6225 58.2385C91.0795 57.8389 91.629 57.5248 92.2359 57.3163C92.8428 57.1077 93.4939 57.0092 94.1478 57.0271C94.9304 57.0043 95.71 57.1207 96.437 57.369V58.346C95.7371 58.0152 94.9478 57.8468 94.1478 57.8575C93.6435 57.8454 93.1421 57.9264 92.6779 58.095C92.2136 58.2636 91.7975 58.5159 91.4581 58.8345C90.7443 59.5286 90.3748 60.4325 90.428 61.355C90.3745 62.2288 90.719 63.0865 91.3894 63.7485C91.711 64.0437 92.1035 64.2759 92.5402 64.4294C92.9768 64.5828 93.4471 64.6538 93.9189 64.6375C94.7978 64.6572 95.6656 64.4678 96.4256 64.0905L96.4141 64.999ZM101.084 65.4875C100.628 65.5001 100.175 65.429 99.7543 65.2789C99.3337 65.1289 98.9557 64.9035 98.646 64.618C98.0202 64.0218 97.6952 63.2389 97.7418 62.4394C97.7132 62.0205 97.7825 61.601 97.9456 61.2052C98.1087 60.8094 98.3623 60.4452 98.6918 60.1338C99.0281 59.8537 99.4281 59.6355 99.8671 59.4926C100.306 59.3498 100.775 59.2854 101.244 59.3034C101.688 59.2832 102.131 59.3453 102.544 59.4852C102.957 59.6252 103.33 59.8398 103.636 60.1143C104.245 60.74 104.552 61.5398 104.495 62.3515C104.543 63.1753 104.21 63.9822 103.568 64.5985C103.252 64.8895 102.867 65.1195 102.439 65.2729C102.01 65.4262 101.548 65.4994 101.084 65.4875ZM101.164 60.1436C100.849 60.1323 100.535 60.1817 100.246 60.2883C99.9568 60.3949 99.6994 60.5558 99.493 60.7591C99.0526 61.2431 98.833 61.8471 98.8749 62.4589C98.835 63.0526 99.0553 63.6376 99.493 64.1002C99.7015 64.3006 99.9596 64.4589 100.249 64.5637C100.538 64.6685 100.85 64.717 101.164 64.7059C101.471 64.7214 101.778 64.6766 102.062 64.575C102.346 64.4734 102.599 64.3177 102.801 64.1198C103.217 63.6344 103.42 63.0395 103.373 62.4394C103.418 61.8364 103.216 61.2387 102.801 60.7493C102.601 60.5472 102.35 60.3874 102.066 60.2823C101.782 60.1772 101.473 60.1297 101.164 60.1436ZM109.863 60.4367C109.616 60.2984 109.322 60.2332 109.027 60.251C108.797 60.2582 108.572 60.3136 108.372 60.4124C108.173 60.5112 108.005 60.6504 107.883 60.8177C107.542 61.278 107.378 61.8176 107.414 62.3612V65.3507H106.269V59.489H107.414V60.7004C107.539 60.3226 107.79 59.9835 108.135 59.7235C108.433 59.5024 108.815 59.3809 109.21 59.3816C109.432 59.3731 109.653 59.3996 109.863 59.4597V60.4367ZM116.559 62.6543H111.729C111.696 63.2005 111.904 63.7372 112.312 64.1588C112.524 64.3394 112.779 64.4798 113.059 64.5707C113.339 64.6616 113.638 64.701 113.938 64.6864C114.714 64.6798 115.464 64.4491 116.067 64.0318V64.9111C115.359 65.3092 114.521 65.5043 113.674 65.4679C113.247 65.4863 112.821 65.4241 112.425 65.2856C112.029 65.1471 111.674 64.9359 111.385 64.6668C110.789 64.0325 110.491 63.2314 110.55 62.4199C110.509 61.6063 110.832 60.8099 111.454 60.1924C111.737 59.9133 112.089 59.6914 112.485 59.5427C112.881 59.394 113.311 59.3223 113.743 59.3327C114.133 59.314 114.524 59.3711 114.884 59.4997C115.245 59.6283 115.567 59.8251 115.826 60.0752C116.353 60.6684 116.613 61.4033 116.559 62.1463L116.57 62.6543H116.559ZM115.414 61.8728C115.437 61.4201 115.275 60.9746 114.956 60.6125C114.8 60.4615 114.605 60.3426 114.387 60.2648C114.169 60.187 113.933 60.1522 113.697 60.1631C113.451 60.1605 113.207 60.2018 112.98 60.2842C112.753 60.3666 112.549 60.4884 112.381 60.6418C112.004 60.982 111.767 61.4174 111.706 61.8825H115.414V61.8728Z" fill="#F2F2F2"/>
</g>
<defs>
<filter id="filter0_dddd_192_2476" x="0" y="0.083374" width="204" height="119.833" filterUnits="userSpaceOnUse" color-interpolation-filters="sRGB">
<feFlood flood-opacity="0" result="BackgroundImageFix"/>
<feColorMatrix in="SourceAlpha" type="matrix" values="0 0 0 0 0 0 0 0 0 0 0 0 0 0 0 0 0 0 127 0" result="hardAlpha"/>
<feOffset dy="1"/>
<feGaussianBlur stdDeviation="1.5"/>
<feColorMatrix type="matrix" values="0 0 0 0 0.113725 0 0 0 0 0.243137 0 0 0 0 0.447059 0 0 0 0.04 0"/>
<feBlend mode="normal" in2="BackgroundImageFix" result="effect1_dropShadow_192_2476"/>
<feColorMatrix in="SourceAlpha" type="matrix" values="0 0 0 0 0 0 0 0 0 0 0 0 0 0 0 0 0 0 127 0" result="hardAlpha"/>
<feOffset dy="5"/>
<feGaussianBlur stdDeviation="2.5"/>
<feColorMatrix type="matrix" values="0 0 0 0 0.113725 0 0 0 0 0.243137 0 0 0 0 0.447059 0 0 0 0.03 0"/>
<feBlend mode="normal" in2="effect1_dropShadow_192_2476" result="effect2_dropShadow_192_2476"/>
<feColorMatrix in="SourceAlpha" type="matrix" values="0 0 0 0 0 0 0 0 0 0 0 0 0 0 0 0 0 0 127 0" result="hardAlpha"/>
<feOffset dy="11"/>
<feGaussianBlur stdDeviation="3"/>
<feColorMatrix type="matrix" values="0 0 0 0 0.113725 0 0 0 0 0.243137 0 0 0 0 0.447059 0 0 0 0.02 0"/>
<feBlend mode="normal" in2="effect2_dropShadow_192_2476" result="effect3_dropShadow_192_2476"/>
<feColorMatrix in="SourceAlpha" type="matrix" values="0 0 0 0 0 0 0 0 0 0 0 0 0 0 0 0 0 0 127 0" result="hardAlpha"/>
<feOffset dy="19"/>
<feGaussianBlur stdDeviation="3.5"/>
<feColorMatrix type="matrix" values="0 0 0 0 0.113725 0 0 0 0 0.243137 0 0 0 0 0.447059 0 0 0 0.01 0"/>
<feBlend mode="normal" in2="effect3_dropShadow_192_2476" result="effect4_dropShadow_192_2476"/>
<feBlend mode="normal" in="SourceGraphic" in2="effect4_dropShadow_192_2476" result="shape"/>
</filter>
</defs>
</svg>
