<svg width="204" height="120" viewBox="0 0 204 120" fill="none" xmlns="http://www.w3.org/2000/svg">
<g id="NodeJS" filter="url(#filter0_dddd_192_2456)">
<rect x="7" y="2.08337" width="190" height="91.8333" rx="8" fill="white"/>
<g id="Group">
<g id="Group_2">
<path id="Vector" d="M102.538 76.1713C102.174 76.1713 101.834 76.0893 101.519 75.9466L98.2892 74.3278C97.8039 74.1031 98.0466 74.0201 98.1919 73.9791C98.8478 73.7934 98.9702 73.7544 99.649 73.4261C99.7222 73.3851 99.8207 73.4066 99.8916 73.4456L102.368 74.6961C102.466 74.7372 102.586 74.7372 102.659 74.6961L112.349 69.9618C112.447 69.9208 112.495 69.8387 112.495 69.7371V60.2881C112.495 60.1855 112.445 60.1025 112.349 60.0634L102.659 55.3496C102.562 55.3086 102.442 55.3086 102.368 55.3496L92.6785 60.0634C92.5812 60.1044 92.5331 60.207 92.5331 60.2881V69.7371C92.5331 69.8192 92.5824 69.9228 92.6785 69.9618L95.3259 71.2534C96.7589 71.8688 97.6574 71.1508 97.6574 70.4327V61.1068C97.6574 60.9837 97.7787 60.8606 97.9493 60.8606H99.1877C99.3331 60.8606 99.4796 60.9631 99.4796 61.1068V70.4327C99.4796 72.0515 98.4357 72.9953 96.6136 72.9953C96.055 72.9953 95.6178 72.9953 94.3793 72.4824L91.8292 71.2514C91.1974 70.9437 90.8105 70.3702 90.8105 69.7547V60.3057C90.8105 59.6902 91.1997 59.1167 91.8292 58.809L101.519 54.0747C102.126 53.7874 102.952 53.7874 103.56 54.0747L113.25 58.809C113.882 59.1167 114.269 59.6902 114.269 60.3057V69.7547C114.269 70.3702 113.88 70.9437 113.25 71.2514L103.56 75.9857C103.239 76.1076 102.892 76.1705 102.54 76.1704L102.538 76.1713ZM105.514 69.6746C101.264 69.6746 100.39 68.0353 100.39 66.6412C100.39 66.5181 100.511 66.395 100.681 66.395H101.944C102.089 66.395 102.211 66.4771 102.211 66.5904C102.405 67.6768 102.964 68.2092 105.538 68.2092C107.577 68.2092 108.452 67.8184 108.452 66.8971C108.452 66.3647 108.209 65.9749 105.027 65.7082C102.38 65.4835 100.728 64.9911 100.728 63.2072C100.728 61.5464 102.38 60.5626 105.149 60.5626C108.257 60.5626 109.788 61.4643 109.982 63.4319C109.982 63.4935 109.959 63.555 109.909 63.6175C109.86 63.6586 109.788 63.6996 109.714 63.6996H108.452C108.331 63.6996 108.209 63.6175 108.185 63.514C107.893 62.3866 107.141 62.0173 105.15 62.0173C102.916 62.0173 102.648 62.6718 102.648 63.1652C102.648 63.7592 102.964 63.9438 105.975 64.2721C108.951 64.6003 110.37 65.0712 110.37 66.8346C110.347 68.6381 108.596 69.6629 105.513 69.6629L105.514 69.6746Z" fill="#539E43"/>
<path id="Vector_2" d="M72.47 39.2152C72.47 38.846 72.2274 38.4982 71.8382 38.3135L61.5405 33.3115C61.3688 33.2295 61.1765 33.1884 60.9819 33.1679H60.8846C60.69 33.1679 60.4955 33.2295 60.3261 33.3115L50.0283 38.3135C49.6391 38.4991 49.3965 38.846 49.3965 39.2152L49.4194 52.661C49.4188 52.7537 49.4479 52.8447 49.5036 52.9243C49.5593 53.0038 49.6394 53.0689 49.7353 53.1124C49.9299 53.215 50.1725 53.215 50.3419 53.1124L56.462 50.162C56.8511 49.9764 57.0938 49.6295 57.0938 49.2603V42.9687C57.0938 42.5994 57.3364 42.2516 57.7256 42.067L60.3238 40.7969C60.5184 40.6944 60.7358 40.6533 60.9556 40.6533C61.1706 40.6471 61.3827 40.6972 61.5634 40.7969L64.1615 42.067C64.5507 42.2526 64.7934 42.5994 64.7934 42.9687V49.2603C64.7934 49.6295 65.036 49.9773 65.4252 50.162L71.5452 53.1124C71.7398 53.215 71.9824 53.215 72.177 53.1124C72.2729 53.0689 72.353 53.0038 72.4087 52.9243C72.4644 52.8447 72.4935 52.7537 72.4929 52.661L72.47 39.2152ZM121.967 20.7069C121.873 20.6664 121.769 20.6453 121.663 20.6453C121.558 20.6453 121.454 20.6664 121.36 20.7069C121.165 20.8095 121.044 20.9736 121.044 21.1563V34.479C121.044 34.6021 120.97 34.7252 120.826 34.8072C120.759 34.8375 120.684 34.8534 120.608 34.8534C120.531 34.8534 120.456 34.8375 120.389 34.8072L117.814 33.5568C117.43 33.3711 116.959 33.3711 116.575 33.5568L106.277 38.5783C105.888 38.7639 105.646 39.1107 105.646 39.48V49.5035C105.646 49.8728 105.888 50.2206 106.277 50.4052L116.575 55.4268C116.959 55.6124 117.43 55.6124 117.814 55.4268L128.111 50.4052C128.501 50.2196 128.743 49.8728 128.743 49.5035V24.519C128.743 24.1282 128.501 23.7814 128.111 23.5967L121.967 20.7069ZM121.021 46.2053C121.021 46.3079 120.973 46.3909 120.875 46.43L117.354 48.1514C117.254 48.1924 117.136 48.1924 117.038 48.1514L113.516 46.43C113.418 46.389 113.37 46.2864 113.37 46.2053V42.7616C113.37 42.659 113.418 42.576 113.516 42.5369L117.038 40.8155C117.137 40.7745 117.255 40.7745 117.354 40.8155L120.875 42.5369C120.973 42.5779 121.021 42.6805 121.021 42.7616V46.2053ZM156.236 42.6785C156.625 42.4929 156.843 42.1461 156.843 41.7768V39.3374C156.84 39.1552 156.783 38.9767 156.677 38.8188C156.57 38.661 156.418 38.529 156.235 38.4356L146.01 33.4337C145.627 33.248 145.155 33.248 144.772 33.4337L134.474 38.4552C134.085 38.6408 133.842 38.9876 133.842 39.3569V49.3804C133.842 49.7497 134.085 50.0975 134.474 50.2821L144.699 55.2011C145.088 55.3867 145.549 55.3867 145.912 55.2011L152.104 52.2898C152.2 52.2463 152.28 52.1813 152.336 52.1017C152.391 52.0221 152.421 51.9311 152.42 51.8384C152.421 51.7458 152.391 51.6547 152.336 51.5752C152.28 51.4956 152.2 51.4306 152.104 51.3871L141.757 46.3655C141.563 46.263 141.441 46.0988 141.441 45.9162V42.7899C141.441 42.6972 141.47 42.6062 141.525 42.5266C141.581 42.4471 141.661 42.382 141.757 42.3386L144.987 40.7803C145.182 40.6777 145.425 40.6777 145.619 40.7803L148.849 42.3386C149.043 42.4411 149.165 42.6053 149.165 42.7899V45.2499C149.164 45.3424 149.194 45.4332 149.249 45.5126C149.305 45.5919 149.385 45.6568 149.481 45.7002C149.675 45.8028 149.918 45.8028 150.113 45.7002L156.233 42.6873L156.236 42.6785Z" fill="#333333"/>
<path id="Vector_3" d="M145.235 42.2067C145.308 42.1656 145.404 42.1656 145.477 42.2067L147.446 43.17C147.519 43.211 147.567 43.2725 147.567 43.3556V45.2821C147.567 45.3192 147.556 45.3557 147.535 45.3881C147.514 45.4204 147.483 45.4475 147.446 45.4668L145.477 46.43C145.404 46.4711 145.308 46.4711 145.235 46.43L143.266 45.4668C143.229 45.4475 143.198 45.4204 143.177 45.3881C143.155 45.3557 143.144 45.3192 143.145 45.2821V43.3556C143.145 43.2735 143.193 43.212 143.266 43.17L145.235 42.2067Z" fill="#539E43"/>
</g>
<g id="Group_3">
<path id="Vector_4" d="M89.6887 33.4759C89.3053 33.2903 88.8337 33.2903 88.4503 33.4759L78.2258 38.4564C77.8366 38.642 77.6191 38.9888 77.6191 39.3581V49.3406C77.6216 49.5227 77.6788 49.7012 77.7852 49.8591C77.8916 50.017 78.0437 50.1489 78.2269 50.2423L88.4514 55.2228C88.8349 55.4084 89.3064 55.4084 89.6899 55.2228L99.9144 50.2423C100.304 50.0567 100.521 49.7099 100.521 49.3406V39.3581C100.519 39.176 100.461 38.9975 100.355 38.8396C100.249 38.6817 100.096 38.5498 99.9132 38.4564L89.6887 33.4759Z" fill="url(#paint0_linear_192_2456)"/>
<mask id="mask0_192_2456" style="mask-type:alpha" maskUnits="userSpaceOnUse" x="77" y="33" width="24" height="23">
<g id="K">
<path id="Vector_5" d="M89.6887 33.4759C89.3053 33.2903 88.8337 33.2903 88.4503 33.4759L78.2258 38.4564C77.8366 38.642 77.6191 38.9888 77.6191 39.3581V49.3406C77.6216 49.5227 77.6788 49.7012 77.7852 49.8591C77.8916 50.017 78.0437 50.1489 78.2269 50.2423L88.4514 55.2228C88.8349 55.4084 89.3064 55.4084 89.6899 55.2228L99.9144 50.2423C100.304 50.0567 100.521 49.7099 100.521 49.3406V39.3581C100.519 39.176 100.461 38.9975 100.355 38.8396C100.249 38.6817 100.096 38.5498 99.9132 38.4564L89.6887 33.4759Z" fill="white"/>
</g>
</mask>
<g mask="url(#mask0_192_2456)">
<g id="Group_4">
<path id="Vector_6" d="M99.9386 38.4564L89.6545 33.4759C89.563 33.4231 89.4599 33.3987 89.3501 33.3743L77.8379 50.0166C77.9329 50.1143 78.0485 50.1983 78.1778 50.2628L88.4516 55.2433C88.7434 55.3869 89.0834 55.4289 89.3981 55.3459L100.208 38.6615C100.13 38.5826 100.04 38.5136 99.9397 38.4564H99.9386Z" fill="url(#paint1_linear_192_2456)"/>
</g>
</g>
<mask id="mask1_192_2456" style="mask-type:alpha" maskUnits="userSpaceOnUse" x="77" y="33" width="24" height="23">
<g id="L">
<path id="Vector_7" d="M89.6887 33.4759C89.3053 33.2903 88.8337 33.2903 88.4503 33.4759L78.2258 38.4564C77.8366 38.642 77.6191 38.9888 77.6191 39.3581V49.3406C77.6216 49.5227 77.6788 49.7012 77.7852 49.8591C77.8916 50.017 78.0437 50.1489 78.2269 50.2423L88.4514 55.2228C88.8349 55.4084 89.3064 55.4084 89.6899 55.2228L99.9144 50.2423C100.304 50.0567 100.521 49.7099 100.521 49.3406V39.3581C100.519 39.176 100.461 38.9975 100.355 38.8396C100.249 38.6817 100.096 38.5498 99.9132 38.4564L89.6887 33.4759Z" fill="white"/>
</g>
</mask>
<g mask="url(#mask1_192_2456)">
<g id="Group_5">
<path id="Vector_8" fill-rule="evenodd" clip-rule="evenodd" d="M99.9633 50.2425C100.255 50.0989 100.474 49.8517 100.57 49.5879L89.3004 33.3549C89.0085 33.3139 88.6937 33.3354 88.4259 33.478L78.2266 38.437L89.2283 55.3676C89.3881 55.3454 89.5434 55.304 89.6895 55.2445L99.9633 50.2425Z" fill="url(#paint2_linear_192_2456)"/>
<path id="Vector_9" d="M99.9637 50.2422L89.7152 55.2227C89.5704 55.2851 89.4145 55.3267 89.2539 55.3458L89.4485 55.6535L100.814 50.0996V49.9765L100.522 49.5662C100.474 49.8534 100.256 50.0986 99.9637 50.2422Z" fill="url(#paint3_linear_192_2456)"/>
<path id="Vector_10" d="M99.9637 50.2422L89.7152 55.2227C89.5704 55.2851 89.4145 55.3267 89.2539 55.3458L89.4485 55.6535L100.814 50.0996V49.9765L100.522 49.5662C100.474 49.8534 100.256 50.0986 99.9637 50.2422Z" fill="url(#paint4_linear_192_2456)"/>
</g>
</g>
</g>
</g>
</g>
<defs>
<filter id="filter0_dddd_192_2456" x="0" y="0.083374" width="204" height="119.833" filterUnits="userSpaceOnUse" color-interpolation-filters="sRGB">
<feFlood flood-opacity="0" result="BackgroundImageFix"/>
<feColorMatrix in="SourceAlpha" type="matrix" values="0 0 0 0 0 0 0 0 0 0 0 0 0 0 0 0 0 0 127 0" result="hardAlpha"/>
<feOffset dy="1"/>
<feGaussianBlur stdDeviation="1.5"/>
<feColorMatrix type="matrix" values="0 0 0 0 0.113725 0 0 0 0 0.243137 0 0 0 0 0.447059 0 0 0 0.04 0"/>
<feBlend mode="normal" in2="BackgroundImageFix" result="effect1_dropShadow_192_2456"/>
<feColorMatrix in="SourceAlpha" type="matrix" values="0 0 0 0 0 0 0 0 0 0 0 0 0 0 0 0 0 0 127 0" result="hardAlpha"/>
<feOffset dy="5"/>
<feGaussianBlur stdDeviation="2.5"/>
<feColorMatrix type="matrix" values="0 0 0 0 0.113725 0 0 0 0 0.243137 0 0 0 0 0.447059 0 0 0 0.03 0"/>
<feBlend mode="normal" in2="effect1_dropShadow_192_2456" result="effect2_dropShadow_192_2456"/>
<feColorMatrix in="SourceAlpha" type="matrix" values="0 0 0 0 0 0 0 0 0 0 0 0 0 0 0 0 0 0 127 0" result="hardAlpha"/>
<feOffset dy="11"/>
<feGaussianBlur stdDeviation="3"/>
<feColorMatrix type="matrix" values="0 0 0 0 0.113725 0 0 0 0 0.243137 0 0 0 0 0.447059 0 0 0 0.02 0"/>
<feBlend mode="normal" in2="effect2_dropShadow_192_2456" result="effect3_dropShadow_192_2456"/>
<feColorMatrix in="SourceAlpha" type="matrix" values="0 0 0 0 0 0 0 0 0 0 0 0 0 0 0 0 0 0 127 0" result="hardAlpha"/>
<feOffset dy="19"/>
<feGaussianBlur stdDeviation="3.5"/>
<feColorMatrix type="matrix" values="0 0 0 0 0.113725 0 0 0 0 0.243137 0 0 0 0 0.447059 0 0 0 0.01 0"/>
<feBlend mode="normal" in2="effect3_dropShadow_192_2456" result="effect4_dropShadow_192_2456"/>
<feBlend mode="normal" in="SourceGraphic" in2="effect4_dropShadow_192_2456" result="shape"/>
</filter>
<linearGradient id="paint0_linear_192_2456" x1="92.3519" y1="37.1882" x2="85.5323" y2="53.3018" gradientUnits="userSpaceOnUse">
<stop stop-color="#41873F"/>
<stop offset="0.3288" stop-color="#418B3D"/>
<stop offset="0.6352" stop-color="#419637"/>
<stop offset="0.9319" stop-color="#3FA92D"/>
<stop offset="1" stop-color="#3FAE2A"/>
</linearGradient>
<linearGradient id="paint1_linear_192_2456" x1="87.8915" y1="45.5191" x2="107.143" y2="29.0402" gradientUnits="userSpaceOnUse">
<stop offset="0.1376" stop-color="#41873F"/>
<stop offset="0.4032" stop-color="#54A044"/>
<stop offset="0.7136" stop-color="#66B848"/>
<stop offset="0.9081" stop-color="#6CC04A"/>
</linearGradient>
<linearGradient id="paint2_linear_192_2456" x1="77.2459" y1="44.3513" x2="100.905" y2="44.3513" gradientUnits="userSpaceOnUse">
<stop offset="0.09192" stop-color="#6CC04A"/>
<stop offset="0.2864" stop-color="#66B848"/>
<stop offset="0.5968" stop-color="#54A044"/>
<stop offset="0.8624" stop-color="#41873F"/>
</linearGradient>
<linearGradient id="paint3_linear_192_2456" x1="77.2473" y1="52.6266" x2="100.906" y2="52.6266" gradientUnits="userSpaceOnUse">
<stop offset="0.09192" stop-color="#6CC04A"/>
<stop offset="0.2864" stop-color="#66B848"/>
<stop offset="0.5968" stop-color="#54A044"/>
<stop offset="0.8624" stop-color="#41873F"/>
</linearGradient>
<linearGradient id="paint4_linear_192_2456" x1="104.353" y1="46.5612" x2="98.7056" y2="59.9071" gradientUnits="userSpaceOnUse">
<stop stop-color="#41873F"/>
<stop offset="0.3288" stop-color="#418B3D"/>
<stop offset="0.6352" stop-color="#419637"/>
<stop offset="0.9319" stop-color="#3FA92D"/>
<stop offset="1" stop-color="#3FAE2A"/>
</linearGradient>
</defs>
</svg>
