<svg width="204" height="120" viewBox="0 0 204 120" fill="none" xmlns="http://www.w3.org/2000/svg">
<g id="PHP" filter="url(#filter0_dddd_192_2436)">
<rect x="7" y="2.08337" width="190" height="91.8333" rx="8" fill="white"/>
<g id="Group">
<g id="Group_2">
<mask id="mask0_192_2436" style="mask-type:alpha" maskUnits="userSpaceOnUse" x="47" y="23" width="110" height="50">
<g id="E">
<path id="Vector" d="M47.1641 47.9729C47.1641 61.5017 71.7153 72.47 102.017 72.47C132.318 72.47 156.881 61.5017 156.881 47.972C156.881 34.4422 132.318 23.474 102.017 23.474C71.7153 23.474 47.1641 34.4441 47.1641 47.9729Z" fill="white"/>
</g>
</mask>
<g mask="url(#mask0_192_2436)">
<g id="Group_3">
<path id="Vector_2" d="M47.1641 47.9729C47.1641 61.5017 71.7153 72.47 102.017 72.47C132.318 72.47 156.881 61.5017 156.881 47.972C156.881 34.4422 132.318 23.474 102.017 23.474C71.7153 23.474 47.1641 34.4441 47.1641 47.9729Z" fill="url(#paint0_radial_192_2436)"/>
</g>
</g>
</g>
<mask id="mask1_192_2436" style="mask-type:alpha" maskUnits="userSpaceOnUse" x="44" y="20" width="116" height="56">
<g id="F">
<path id="Vector_3" d="M44.8672 20.6857H159.165V75.2601H44.8672V20.6857Z" fill="white"/>
</g>
</mask>
<g mask="url(#mask1_192_2436)">
<g id="Group_4">
<path id="Vector_4" d="M102.016 70.6519C131.132 70.6519 154.735 60.4984 154.735 47.9729C154.735 35.4474 131.134 25.294 102.016 25.294C72.8981 25.294 49.2969 35.4494 49.2969 47.9739C49.2969 60.4984 72.9004 70.6519 102.016 70.6519Z" fill="#777BB3"/>
</g>
</g>
<mask id="mask2_192_2436" style="mask-type:alpha" maskUnits="userSpaceOnUse" x="44" y="20" width="116" height="56">
<g id="G">
<path id="Vector_5" d="M44.8672 20.6857H159.165V75.2601H44.8672V20.6857Z" fill="white"/>
</g>
</mask>
<g mask="url(#mask2_192_2436)">
<g id="Group_5">
<path id="Vector_6" d="M76.9613 50.7843C79.3557 50.7843 81.1424 50.4091 82.2721 49.6706C83.3904 48.9398 84.1641 47.6727 84.5681 45.9054C84.9458 44.2544 84.8016 43.1016 84.1412 42.4783C83.4659 41.8432 82.0031 41.5208 79.7964 41.5208H75.9701L73.8492 50.7853H76.959L76.9613 50.7843ZM64.4476 62.1951C64.36 62.1952 64.2734 62.1788 64.1941 62.147C64.1147 62.1153 64.0446 62.069 63.9886 62.0114C63.8742 61.8942 63.8284 61.7418 63.8627 61.5933L69.4826 37.0425C69.5096 36.9272 69.5827 36.8234 69.6894 36.7489C69.796 36.6745 69.9297 36.6339 70.0675 36.6341H82.1828C85.9908 36.6341 88.8248 37.5114 90.6069 39.2426C92.3982 40.9816 92.951 43.4142 92.2505 46.472C91.9828 47.677 91.4909 48.8376 90.7935 49.9099C90.1113 50.9455 89.2094 51.9058 88.1129 52.7626C86.8001 53.806 85.3144 54.5622 83.7005 55.0067C82.113 55.4463 80.0722 55.6681 77.6389 55.6681H72.7332L71.3322 61.7857C71.3055 61.9011 71.2327 62.0049 71.1262 62.0796C71.0198 62.1542 70.8863 62.195 70.7485 62.1951H64.4476Z" fill="black"/>
<path id="Vector_7" d="M76.463 42.0243H79.7983C82.4617 42.0243 83.3865 42.5205 83.6898 42.8058C84.2117 43.2962 84.3102 44.3318 83.976 45.7982C83.5983 47.4395 82.9001 48.605 81.9008 49.2586C80.8764 49.9278 79.2111 50.2668 76.9517 50.2668H74.5641L76.4527 42.0135L76.463 42.0243ZM82.1836 36.1293H70.0682C69.7926 36.1291 69.5255 36.2105 69.3124 36.3596C69.0993 36.5087 68.9534 36.7164 68.8996 36.947L63.2797 61.4978C63.2462 61.6441 63.2512 61.795 63.2944 61.9394C63.3375 62.0839 63.4177 62.2183 63.5292 62.3331C63.6412 62.4484 63.7817 62.5411 63.9406 62.6046C64.0995 62.6681 64.2729 62.7008 64.4483 62.7004H70.7492C71.0248 62.7007 71.2919 62.6193 71.505 62.4702C71.7181 62.321 71.864 62.1134 71.9178 61.8827L73.2249 56.1734H77.6396C80.1348 56.1734 82.2385 55.9419 83.8867 55.4866C85.5807 55.0197 87.1407 54.2166 88.5222 53.1322C89.6634 52.2412 90.6054 51.2398 91.315 50.1583C92.0246 49.0769 92.5397 47.8684 92.8373 46.57C93.5744 43.3519 92.9746 40.7767 91.0575 38.9107C89.1575 37.0643 86.1736 36.1293 82.187 36.1293H82.1836ZM73.1299 51.2887H76.962C79.503 51.2887 81.3938 50.8823 82.6391 50.0704C83.8844 49.2586 84.7222 47.9016 85.1572 46.0014C85.5738 44.1765 85.3838 42.8889 84.5872 42.1395C83.7905 41.3902 82.195 41.0141 79.8005 41.0141H75.4855L73.1334 51.2887H73.1299ZM82.1836 37.1395C85.8279 37.1395 88.4867 37.9504 90.1578 39.575C91.8289 41.1997 92.3325 43.4653 91.6652 46.3746C91.3905 47.5733 90.927 48.6705 90.2734 49.6621C89.6199 50.6537 88.7649 51.5642 87.7096 52.3975C86.4505 53.3969 85.0542 54.1091 83.5158 54.5331C81.9775 54.9571 80.0192 55.1701 77.6384 55.1701H72.2417L70.7458 61.6805H64.4449L70.0648 37.1297H82.1801L82.1836 37.1395Z" fill="white"/>
<path id="Vector_8" d="M106.698 55.6692C106.611 55.6693 106.524 55.6529 106.445 55.6211C106.366 55.5894 106.295 55.5431 106.239 55.4855C106.125 55.3683 106.079 55.2159 106.114 55.0674L108.601 44.2037C108.838 43.1711 108.779 42.4296 108.437 42.116C108.228 41.9245 107.598 41.6031 105.736 41.6031H101.231L98.1061 55.2589C98.0793 55.3744 98.0063 55.4784 97.8996 55.553C97.7929 55.6277 97.6592 55.6684 97.5212 55.6682H91.2718C91.1842 55.6683 91.0976 55.6519 91.0183 55.6202C90.9389 55.5884 90.8688 55.5421 90.8128 55.4845C90.6984 55.3673 90.6526 55.2149 90.6869 55.0664L96.3068 30.5156C96.3338 30.4003 96.4069 30.2966 96.5136 30.2221C96.6203 30.1476 96.7539 30.107 96.8917 30.1073H103.141C103.229 30.1072 103.315 30.1236 103.395 30.1553C103.474 30.1871 103.544 30.2334 103.6 30.291C103.715 30.4082 103.76 30.5606 103.726 30.7091L102.37 36.6343H107.216C110.908 36.6343 113.411 37.1872 114.87 38.3244C116.358 39.4841 116.82 41.3383 116.248 43.8344L113.632 55.2589C113.605 55.3744 113.533 55.4784 113.426 55.553C113.319 55.6277 113.185 55.6684 113.047 55.6682H106.698V55.6692Z" fill="black"/>
<path id="Vector_9" d="M103.14 29.6033H96.8905C96.6149 29.6031 96.3478 29.6845 96.1346 29.8336C95.9215 29.9827 95.7756 30.1904 95.7218 30.421L90.102 54.9718C90.0685 55.1181 90.0735 55.269 90.1166 55.4134C90.1598 55.5579 90.24 55.6923 90.3515 55.8071C90.4635 55.9224 90.604 56.0151 90.7629 56.0786C90.9218 56.1421 91.0951 56.1748 91.2706 56.1744H97.5177C97.7933 56.1747 98.0604 56.0933 98.2735 55.9442C98.4866 55.795 98.6325 55.5874 98.6863 55.3567L101.719 42.1093H105.733C107.591 42.1093 107.981 42.4463 107.997 42.461C108.11 42.5636 108.258 43.0403 108.013 44.1081L105.526 54.9718C105.493 55.1181 105.498 55.269 105.541 55.4134C105.584 55.5579 105.664 55.6923 105.776 55.8071C105.888 55.9224 106.028 56.0151 106.187 56.0786C106.346 56.1421 106.519 56.1748 106.695 56.1744H113.045C113.321 56.1747 113.588 56.0933 113.801 55.9442C114.014 55.795 114.16 55.5874 114.214 55.3567L116.829 43.9323C117.443 41.2505 116.917 39.239 115.269 37.9533C113.696 36.7273 111.06 36.1303 107.211 36.1303H103.092L104.311 30.806C104.344 30.6597 104.339 30.5088 104.296 30.3644C104.253 30.2199 104.173 30.0854 104.061 29.9707C103.835 29.7382 103.498 29.6024 103.142 29.6024L103.14 29.6033ZM103.142 30.6125L101.647 37.1386H107.216C110.718 37.1386 113.137 37.6563 114.467 38.6948C115.797 39.7333 116.183 41.4137 115.664 43.7379L113.046 55.1643H106.697L109.184 44.3006C109.467 43.0647 109.363 42.2216 108.872 41.7722C108.381 41.3228 107.335 41.0884 105.736 41.0884H100.74L97.5177 55.1643H91.2683L96.8882 30.6135H103.138" fill="white"/>
<path id="Vector_10" d="M126.136 50.7843C128.531 50.7843 130.317 50.4091 131.447 49.6706C132.565 48.9398 133.339 47.6727 133.744 45.9054C134.122 44.2544 133.978 43.1016 133.316 42.4783C132.641 41.8432 131.178 41.5208 128.971 41.5208H125.147L123.026 50.7853H126.136V50.7843ZM113.621 62.196C113.534 62.1962 113.447 62.1798 113.368 62.148C113.289 62.1163 113.218 62.0699 113.162 62.0124C113.048 61.8951 113.002 61.7427 113.037 61.5942L118.656 37.0435C118.683 36.9281 118.757 36.8244 118.863 36.7499C118.97 36.6754 119.104 36.6349 119.241 36.6351H131.357C135.165 36.6351 137.999 37.5124 139.781 39.2436C141.572 40.9825 142.125 43.4152 141.424 46.473C141.138 47.7186 140.649 48.8763 139.967 49.9119C139.285 50.9474 138.383 51.9078 137.287 52.7646C135.974 53.808 134.488 54.5641 132.874 55.0086C131.287 55.4482 129.246 55.67 126.813 55.67H121.908L120.508 61.7877C120.482 61.9032 120.409 62.0072 120.302 62.0818C120.195 62.1565 120.061 62.1972 119.923 62.197H113.621V62.196Z" fill="black"/>
<path id="Vector_11" d="M125.64 42.0243H128.975C131.639 42.0243 132.563 42.5205 132.867 42.8058C133.389 43.2962 133.487 44.3318 133.153 45.7982C132.775 47.4395 132.077 48.605 131.078 49.2586C130.053 49.9278 128.388 50.2668 126.129 50.2668H123.741L125.63 42.0135L125.64 42.0243ZM131.36 36.1293H119.244C118.968 36.1291 118.701 36.2105 118.488 36.3596C118.275 36.5087 118.129 36.7164 118.075 36.947L112.455 61.4978C112.422 61.6441 112.427 61.795 112.47 61.9394C112.513 62.0839 112.594 62.2183 112.705 62.3331C112.817 62.4484 112.957 62.5411 113.116 62.6046C113.275 62.6681 113.449 62.7008 113.624 62.7004H119.925C120.201 62.7007 120.468 62.6193 120.681 62.4702C120.894 62.321 121.04 62.1134 121.094 61.8827L122.401 56.1734H126.815C129.311 56.1734 131.414 55.9419 133.062 55.4866C134.756 55.0197 136.317 54.2166 137.698 53.1322C138.809 52.274 139.752 51.2701 140.492 50.1583C141.205 49.0759 141.717 47.8684 142.014 46.57C142.751 43.3519 142.152 40.7747 140.234 38.9107C138.334 37.0643 135.35 36.1293 131.364 36.1293H131.36ZM122.307 51.2887H126.139C128.68 51.2887 130.571 50.8823 131.816 50.0704C133.061 49.2586 133.899 47.9016 134.334 46.0014C134.751 44.1765 134.563 42.8889 133.764 42.1395C132.965 41.3902 131.372 41.0141 128.977 41.0141H124.662L122.31 51.2887H122.307ZM131.36 37.1395C135.005 37.1395 137.664 37.9504 139.335 39.575C141.006 41.1997 141.509 43.4653 140.842 46.3746C140.567 47.5733 140.104 48.6705 139.45 49.6621C138.797 50.6537 137.942 51.5642 136.887 52.3975C135.627 53.3969 134.231 54.1091 132.693 54.5331C131.154 54.9571 129.196 55.1701 126.815 55.1701H121.416L119.923 61.6961H113.622L119.242 37.1454H131.357L131.36 37.1395Z" fill="white"/>
</g>
</g>
</g>
</g>
<defs>
<filter id="filter0_dddd_192_2436" x="0" y="0.083374" width="204" height="119.833" filterUnits="userSpaceOnUse" color-interpolation-filters="sRGB">
<feFlood flood-opacity="0" result="BackgroundImageFix"/>
<feColorMatrix in="SourceAlpha" type="matrix" values="0 0 0 0 0 0 0 0 0 0 0 0 0 0 0 0 0 0 127 0" result="hardAlpha"/>
<feOffset dy="1"/>
<feGaussianBlur stdDeviation="1.5"/>
<feColorMatrix type="matrix" values="0 0 0 0 0.113725 0 0 0 0 0.243137 0 0 0 0 0.447059 0 0 0 0.04 0"/>
<feBlend mode="normal" in2="BackgroundImageFix" result="effect1_dropShadow_192_2436"/>
<feColorMatrix in="SourceAlpha" type="matrix" values="0 0 0 0 0 0 0 0 0 0 0 0 0 0 0 0 0 0 127 0" result="hardAlpha"/>
<feOffset dy="5"/>
<feGaussianBlur stdDeviation="2.5"/>
<feColorMatrix type="matrix" values="0 0 0 0 0.113725 0 0 0 0 0.243137 0 0 0 0 0.447059 0 0 0 0.03 0"/>
<feBlend mode="normal" in2="effect1_dropShadow_192_2436" result="effect2_dropShadow_192_2436"/>
<feColorMatrix in="SourceAlpha" type="matrix" values="0 0 0 0 0 0 0 0 0 0 0 0 0 0 0 0 0 0 127 0" result="hardAlpha"/>
<feOffset dy="11"/>
<feGaussianBlur stdDeviation="3"/>
<feColorMatrix type="matrix" values="0 0 0 0 0.113725 0 0 0 0 0.243137 0 0 0 0 0.447059 0 0 0 0.02 0"/>
<feBlend mode="normal" in2="effect2_dropShadow_192_2436" result="effect3_dropShadow_192_2436"/>
<feColorMatrix in="SourceAlpha" type="matrix" values="0 0 0 0 0 0 0 0 0 0 0 0 0 0 0 0 0 0 127 0" result="hardAlpha"/>
<feOffset dy="19"/>
<feGaussianBlur stdDeviation="3.5"/>
<feColorMatrix type="matrix" values="0 0 0 0 0.113725 0 0 0 0 0.243137 0 0 0 0 0.447059 0 0 0 0.01 0"/>
<feBlend mode="normal" in2="effect3_dropShadow_192_2436" result="effect4_dropShadow_192_2436"/>
<feBlend mode="normal" in="SourceGraphic" in2="effect4_dropShadow_192_2436" result="shape"/>
</filter>
<radialGradient id="paint0_radial_192_2436" cx="0" cy="0" r="1" gradientUnits="userSpaceOnUse" gradientTransform="translate(64.504 32.0867) scale(72.037 61.4934)">
<stop stop-color="#AEB2D5"/>
<stop offset="0.3" stop-color="#AEB2D5"/>
<stop offset="0.75" stop-color="#484C89"/>
<stop offset="1" stop-color="#484C89"/>
</radialGradient>
</defs>
</svg>
