<svg width="204" height="120" viewBox="0 0 204 120" fill="none" xmlns="http://www.w3.org/2000/svg">
<g id="Python" filter="url(#filter0_dddd_192_2421)">
<rect x="7" y="2.08337" width="190" height="91.8333" rx="8" fill="white"/>
<g id="Group">
<path id="Vector" fill-rule="evenodd" clip-rule="evenodd" d="M86.8455 48.1759C86.8455 50.1084 86.303 51.7125 85.211 52.9874C83.9932 54.4314 82.3061 55.1758 80.1486 55.2149C78.5233 55.2579 76.8476 54.8241 75.1124 53.9419V62.1932L72.3242 61.3628V43.047C72.7821 42.578 73.3704 42.1677 74.0846 41.8355C75.7442 41.0286 77.761 40.6144 80.1348 40.5929L80.1749 40.6261C82.3439 40.6026 84.0161 41.3461 85.1904 42.8535C86.2858 44.2359 86.8352 46.0071 86.8352 48.174L86.8455 48.1759ZM83.6281 48.0157C83.6281 44.2125 82.329 42.2595 79.7296 42.154C78.6949 42.113 77.6854 42.2517 76.7034 42.5692C75.9193 42.8037 75.3917 43.0352 75.101 43.2697V52.3475C76.764 53.2268 78.2405 53.6224 79.5282 53.5589C82.2523 53.4085 83.6166 51.563 83.6166 48.0167L83.6281 48.0157ZM103.876 53.5902C103.876 56.1821 103.564 57.9865 102.942 58.9634C102.319 59.9404 101.126 60.7581 99.3706 61.3511C97.9456 61.82 96.3947 62.074 94.7511 62.117L94.2898 60.6516C95.9723 60.4611 97.1547 60.2608 97.8414 60.0781C99.192 59.6874 100.131 59.1012 100.63 58.3265C101.038 57.6875 101.24 56.4683 101.24 54.6629V54.0572C99.3534 54.7758 97.31 55.1448 95.2444 55.1396C93.8709 55.1396 92.6599 54.7801 91.6161 54.0572C90.444 53.2707 89.8592 52.2723 89.8592 51.0638V41.3822L92.6473 40.585V50.3331C92.6473 51.3745 93.0502 52.1766 93.856 52.7383C94.6618 53.3001 95.7045 53.5707 96.983 53.5492C98.2615 53.5277 99.6316 53.1135 101.086 52.3065V40.9465H103.875V53.5912L103.876 53.5902ZM114.763 55.0869L113.844 55.1201C112.267 55.1201 111.037 54.8075 110.158 54.1783C109.279 53.5492 108.844 52.6816 108.844 51.5738V42.41H106.933V40.9465H108.844V37.0583L111.63 36.2308V40.9465H114.763V42.41H111.63V51.5113C111.63 52.3846 111.911 53.0031 112.473 53.3645C112.953 53.6625 113.732 53.8335 114.764 53.8765V55.0879L114.763 55.0869ZM131.648 54.8974H128.86V45.9163C128.86 45.0028 128.603 44.2164 128.093 43.5589C127.832 43.2069 127.468 42.9191 127.038 42.7238C126.607 42.5285 126.124 42.4324 125.636 42.4452C124.358 42.4452 122.759 43.0079 120.829 44.1323V54.8983H118.041V33.4279L120.829 32.6952V42.4647C122.624 41.3803 124.57 40.839 126.684 40.839C128.172 40.839 129.356 41.2543 130.272 42.0817C131.188 42.9092 131.648 43.9399 131.648 45.1718V54.8866V54.8974ZM149.524 47.666C149.524 49.7469 148.886 51.4761 147.612 52.8594C146.212 54.4079 144.278 55.1846 141.809 55.1846C139.362 55.1846 137.455 54.4079 136.08 52.8594C134.82 51.4771 134.209 49.7459 134.209 47.666C134.209 45.7121 134.896 44.0659 136.232 42.7275C137.669 41.308 139.542 40.5948 141.858 40.5948C144.175 40.5948 146.059 41.308 147.513 42.7275C148.861 44.0659 149.535 45.7111 149.535 47.666H149.524ZM146.481 47.6503C146.481 46.1888 146.138 44.9833 145.486 44.0278C144.698 42.8555 143.476 42.2498 141.821 42.1872C138.765 42.3338 137.238 44.1626 137.238 47.666C137.238 49.2721 137.556 50.6144 138.196 51.691C139.013 53.0636 140.24 53.7407 141.876 53.7172C144.945 53.6977 146.479 51.6656 146.479 47.6601L146.481 47.6503ZM165.525 54.8974H162.737V45.4073C162.737 44.3658 162.361 43.554 161.612 42.9688C160.862 42.3836 159.86 42.1032 158.613 42.1257C157.289 42.1452 156.028 42.5165 154.832 43.2082V54.8974H152.044V42.92C153.649 41.945 155.126 41.308 156.474 41.011C157.733 40.7335 158.868 40.5958 159.836 40.5958C160.498 40.5958 161.121 40.6485 161.707 40.756C162.803 40.967 163.694 41.3588 164.379 41.9342C164.747 42.2271 165.04 42.5825 165.237 42.9775C165.435 43.3726 165.533 43.7986 165.526 44.2281V54.8964L165.525 54.8974Z" fill="#646464"/>
<g id="Group_2">
<mask id="mask0_192_2421" style="mask-type:alpha" maskUnits="userSpaceOnUse" x="27" y="33" width="27" height="23">
<g id="F">
<path id="Vector_2" d="M44.7931 33.5139C43.359 33.5198 41.9889 33.6116 40.7825 33.7992C37.2309 34.3228 36.5865 35.419 36.5865 37.4393V40.1083H44.9797V40.9974H33.4355C30.9975 40.9974 28.8606 42.2205 28.1933 44.5476C27.8053 45.8899 27.6039 46.9763 27.6016 48.0812V48.1184C27.6039 49.1979 27.7961 50.297 28.1922 51.6647C28.7873 53.7378 30.2135 55.2149 32.6526 55.2149H35.5369V52.0154C35.5369 49.704 37.9337 47.6651 40.7791 47.6651H49.162C51.4969 47.6651 53.358 46.0629 53.358 44.106V37.4393C53.358 35.5421 51.4397 34.1157 49.162 33.7992C47.7588 33.6079 46.34 33.5125 44.919 33.5139H44.7885H44.7931ZM38.6788 36.9997C38.6788 36.2611 39.3839 35.6613 40.2537 35.6613C41.1236 35.6613 41.8287 36.2611 41.8287 36.9997C41.8262 37.3543 41.659 37.6936 41.3637 37.9431C41.0684 38.1926 40.6692 38.3319 40.2537 38.3303C39.3839 38.3303 38.6788 37.7344 38.6788 36.9997Z" fill="white"/>
</g>
</mask>
<g mask="url(#mask0_192_2421)">
<path id="Vector_3" fill-rule="evenodd" clip-rule="evenodd" d="M44.7931 33.5139C43.359 33.5198 41.9889 33.6116 40.7825 33.7992C37.2309 34.3228 36.5865 35.419 36.5865 37.4393V40.1083H44.9797V40.9974H33.4355C30.9975 40.9974 28.8606 42.2205 28.1933 44.5476C27.8053 45.8899 27.6039 46.9763 27.6016 48.0812V48.1184C27.6039 49.1979 27.7961 50.297 28.1922 51.6647C28.7873 53.7378 30.2135 55.2149 32.6526 55.2149H35.5369V52.0154C35.5369 49.704 37.9337 47.6651 40.7791 47.6651H49.162C51.4969 47.6651 53.358 46.0629 53.358 44.106V37.4393C53.358 35.5421 51.4397 34.1157 49.162 33.7992C47.7588 33.6079 46.34 33.5125 44.919 33.5139H44.7885H44.7931ZM38.6788 36.9997C38.6788 36.2611 39.3839 35.6613 40.2537 35.6613C41.1236 35.6613 41.8287 36.2611 41.8287 36.9997C41.8262 37.3543 41.659 37.6936 41.3637 37.9431C41.0684 38.1926 40.6692 38.3319 40.2537 38.3303C39.3839 38.3303 38.6788 37.7344 38.6788 36.9997Z" fill="url(#paint0_linear_192_2421)"/>
</g>
</g>
<g id="Group_3">
<mask id="mask1_192_2421" style="mask-type:alpha" maskUnits="userSpaceOnUse" x="36" y="40" width="27" height="23">
<g id="G">
<path id="Vector_4" d="M54.4093 40.9984V44.109C54.4093 46.5201 51.9599 48.5493 49.1671 48.5493H40.782C38.4859 48.5493 36.5859 50.1905 36.5859 52.1083V58.777C36.5859 60.6742 38.5638 61.7908 40.782 62.335C43.4374 62.9866 45.9864 63.1048 49.1649 62.335C51.2777 61.825 53.3609 60.7973 53.3609 58.777V56.1157H44.9803V55.2365H57.5592C59.9971 55.2365 60.9071 53.817 61.7552 51.6862C62.632 49.493 62.5942 47.3828 61.7552 44.5692C61.1532 42.5225 60.0017 40.9984 57.5592 40.9984H54.4093ZM48.1199 59.2156C48.1223 58.861 48.2895 58.5217 48.5848 58.2722C48.8801 58.0227 49.2793 57.8834 49.6948 57.885C50.5647 57.885 51.2697 58.4809 51.2697 59.2156C51.2697 59.9503 50.5647 60.554 49.6948 60.554C48.8249 60.554 48.1199 59.9532 48.1199 59.2156Z" fill="white"/>
</g>
</mask>
<g mask="url(#mask1_192_2421)">
<path id="Vector_5" fill-rule="evenodd" clip-rule="evenodd" d="M54.4093 40.9984V44.109C54.4093 46.5201 51.9599 48.5493 49.1671 48.5493H40.782C38.4859 48.5493 36.5859 50.1905 36.5859 52.1083V58.777C36.5859 60.6742 38.5638 61.7908 40.782 62.335C43.4374 62.9866 45.9864 63.1048 49.1649 62.335C51.2777 61.825 53.3609 60.7973 53.3609 58.777V56.1157H44.9803V55.2365H57.5592C59.9971 55.2365 60.9071 53.817 61.7552 51.6862C62.632 49.493 62.5942 47.3828 61.7552 44.5692C61.1532 42.5225 60.0017 40.9984 57.5592 40.9984H54.4093ZM48.1199 59.2156C48.1223 58.861 48.2895 58.5217 48.5848 58.2722C48.8801 58.0227 49.2793 57.8834 49.6948 57.885C50.5647 57.885 51.2697 58.4809 51.2697 59.2156C51.2697 59.9503 50.5647 60.554 49.6948 60.554C48.8249 60.554 48.1199 59.9532 48.1199 59.2156Z" fill="url(#paint1_linear_192_2421)"/>
</g>
</g>
<g id="Group_4">
<mask id="mask2_192_2421" style="mask-type:alpha" maskUnits="userSpaceOnUse" x="169" y="36" width="8" height="3">
<g id="H">
<path id="Vector_6" d="M169.795 36.0071H176.225V38.8695H169.795V36.0071Z" fill="white"/>
</g>
</mask>
<g mask="url(#mask2_192_2421)">
<path id="Vector_7" fill-rule="evenodd" clip-rule="evenodd" d="M173.034 38.8705H173.452V36.5337L174.36 38.8705H174.824L175.767 36.5415V38.8705H176.223V36.0071H175.62L174.588 38.4602L173.707 36.0071H173.032V38.8695L173.034 38.8705ZM170.953 38.8705H171.442V36.3129H172.6V36.0071H169.795V36.3129H170.953V38.8725V38.8705Z" fill="#646464"/>
</g>
</g>
</g>
</g>
<defs>
<filter id="filter0_dddd_192_2421" x="0" y="0.083374" width="204" height="119.833" filterUnits="userSpaceOnUse" color-interpolation-filters="sRGB">
<feFlood flood-opacity="0" result="BackgroundImageFix"/>
<feColorMatrix in="SourceAlpha" type="matrix" values="0 0 0 0 0 0 0 0 0 0 0 0 0 0 0 0 0 0 127 0" result="hardAlpha"/>
<feOffset dy="1"/>
<feGaussianBlur stdDeviation="1.5"/>
<feColorMatrix type="matrix" values="0 0 0 0 0.113725 0 0 0 0 0.243137 0 0 0 0 0.447059 0 0 0 0.04 0"/>
<feBlend mode="normal" in2="BackgroundImageFix" result="effect1_dropShadow_192_2421"/>
<feColorMatrix in="SourceAlpha" type="matrix" values="0 0 0 0 0 0 0 0 0 0 0 0 0 0 0 0 0 0 127 0" result="hardAlpha"/>
<feOffset dy="5"/>
<feGaussianBlur stdDeviation="2.5"/>
<feColorMatrix type="matrix" values="0 0 0 0 0.113725 0 0 0 0 0.243137 0 0 0 0 0.447059 0 0 0 0.03 0"/>
<feBlend mode="normal" in2="effect1_dropShadow_192_2421" result="effect2_dropShadow_192_2421"/>
<feColorMatrix in="SourceAlpha" type="matrix" values="0 0 0 0 0 0 0 0 0 0 0 0 0 0 0 0 0 0 127 0" result="hardAlpha"/>
<feOffset dy="11"/>
<feGaussianBlur stdDeviation="3"/>
<feColorMatrix type="matrix" values="0 0 0 0 0.113725 0 0 0 0 0.243137 0 0 0 0 0.447059 0 0 0 0.02 0"/>
<feBlend mode="normal" in2="effect2_dropShadow_192_2421" result="effect3_dropShadow_192_2421"/>
<feColorMatrix in="SourceAlpha" type="matrix" values="0 0 0 0 0 0 0 0 0 0 0 0 0 0 0 0 0 0 127 0" result="hardAlpha"/>
<feOffset dy="19"/>
<feGaussianBlur stdDeviation="3.5"/>
<feColorMatrix type="matrix" values="0 0 0 0 0.113725 0 0 0 0 0.243137 0 0 0 0 0.447059 0 0 0 0.01 0"/>
<feBlend mode="normal" in2="effect3_dropShadow_192_2421" result="effect4_dropShadow_192_2421"/>
<feBlend mode="normal" in="SourceGraphic" in2="effect4_dropShadow_192_2421" result="shape"/>
</filter>
<linearGradient id="paint0_linear_192_2421" x1="26.7483" y1="34.6059" x2="43.1718" y2="50.9464" gradientUnits="userSpaceOnUse">
<stop stop-color="#599ED4"/>
<stop offset="1" stop-color="#2F6997"/>
</linearGradient>
<linearGradient id="paint1_linear_192_2421" x1="53.3662" y1="56.6152" x2="47.9194" y2="47.7036" gradientUnits="userSpaceOnUse">
<stop stop-color="#FFD43B"/>
<stop offset="1" stop-color="#FFE872"/>
</linearGradient>
</defs>
</svg>
