<svg width="40" height="40" viewBox="0 0 40 40" fill="none" xmlns="http://www.w3.org/2000/svg">
<g id="_&#208;&#160;&#208;&#181;&#208;&#182;&#208;&#184;&#208;&#188;_&#208;&#184;&#208;&#183;&#208;&#190;&#208;&#187;&#209;&#143;&#209;&#134;&#208;&#184;&#208;&#184;" clip-path="url(#clip0_192_2751)">
<g id="Group 481510">
<g id="Group">
<path id="Vector" d="M30.4061 17.6938C30.4061 12.1536 25.9121 7.65967 20.372 7.65967C14.8319 7.65967 10.3379 12.1445 10.3379 17.6938C10.3379 21.9057 12.9306 25.5082 16.6149 27.0001V31.6942H24.1473V27.0001C27.8225 25.5082 30.4243 21.9057 30.4243 17.6938H30.4061Z" stroke="#FAFAFA" stroke-linecap="round" stroke-linejoin="round"/>
<path id="Vector_2" d="M20.3717 39.0901C18.2884 39.0901 16.6055 37.4071 16.6055 35.3239V34.4688H24.1379V35.3239C24.1379 37.4071 22.4549 39.0901 20.3717 39.0901Z" stroke="#FAFAFA" stroke-linecap="round" stroke-linejoin="round"/>
<path id="Vector_3" d="M13.6406 17.6938C13.6406 13.9731 16.6609 10.9619 20.3725 10.9619" stroke="#FAFAFA" stroke-linecap="round" stroke-linejoin="round"/>
</g>
<g id="Group 481509">
<path id="Vector_4" d="M20.3711 4.17557V0" stroke="#FAFAFA" stroke-linecap="round" stroke-linejoin="round"/>
<path id="Vector_5" d="M15.7505 4.99441L14.3223 1.06445" stroke="#FAFAFA" stroke-linecap="round" stroke-linejoin="round"/>
<path id="Vector_6" d="M11.6836 7.34134L9 4.13916" stroke="#FAFAFA" stroke-linecap="round" stroke-linejoin="round"/>
<path id="Vector_7" d="M29.0586 7.34134L31.7422 4.13916" stroke="#FAFAFA" stroke-linecap="round" stroke-linejoin="round"/>
<path id="Vector_8" d="M24.9922 4.99441L26.4204 1.06445" stroke="#FAFAFA" stroke-linecap="round" stroke-linejoin="round"/>
</g>
</g>
</g>
<defs>
<clipPath id="clip0_192_2751">
<rect width="40" height="40" fill="white"/>
</clipPath>
</defs>
</svg>
