<svg width="40" height="40" viewBox="0 0 40 40" fill="none" xmlns="http://www.w3.org/2000/svg">
<g id="_&#208;&#160;&#208;&#181;&#208;&#182;&#208;&#184;&#208;&#188;_&#208;&#184;&#208;&#183;&#208;&#190;&#208;&#187;&#209;&#143;&#209;&#134;&#208;&#184;&#208;&#184;" clip-path="url(#clip0_192_2770)">
<path id="Vector" d="M15.9829 39.4702C24.5174 39.4702 31.436 32.5516 31.436 24.0171C31.436 15.4826 24.5174 8.56396 15.9829 8.56396C7.44837 8.56396 0.529785 15.4826 0.529785 24.0171C0.529785 32.5516 7.44837 39.4702 15.9829 39.4702Z" stroke="#FAFAFA" stroke-linecap="round" stroke-linejoin="round"/>
<path id="Vector_2" d="M23.4869 31.5104C19.3428 35.6545 12.6337 35.6545 8.5002 31.5104C4.35605 27.3662 4.35605 20.6572 8.5002 16.5236C12.6443 12.3795 19.3534 12.3795 23.4869 16.5236C27.6205 20.6678 27.6311 27.3768 23.4869 31.5104Z" stroke="#FAFAFA" stroke-linecap="round" stroke-linejoin="round"/>
<path id="Vector_3" d="M19.8727 27.9066C17.7211 30.0582 14.2447 30.0582 12.0932 27.9066C9.9416 25.7551 9.9416 22.2787 12.0932 20.1271C14.2447 17.9755 17.7211 17.9755 19.8727 20.1271C22.0243 22.2787 22.0243 25.7551 19.8727 27.9066Z" stroke="#FAFAFA" stroke-linecap="round" stroke-linejoin="round"/>
<path id="Vector_4" d="M15.9829 24.0169L34.8064 5.19336" stroke="#FAFAFA" stroke-linecap="round" stroke-linejoin="round"/>
<path id="Vector_5" d="M15.9829 24.0169L34.8064 5.19336" stroke="#FAFAFA" stroke-linecap="round" stroke-linejoin="round"/>
<path id="Vector_6" d="M33.7678 11.0865L29.2421 10.7579L28.9136 6.2322L31.3301 3.81567L34.6157 0.530029L34.9443 5.05573L39.47 5.38429L36.1844 8.66993L33.7678 11.0865Z" stroke="#FAFAFA" stroke-linecap="round" stroke-linejoin="round"/>
</g>
<defs>
<clipPath id="clip0_192_2770">
<rect width="40" height="40" fill="white"/>
</clipPath>
</defs>
</svg>
