<svg width="40" height="40" viewBox="0 0 40 40" fill="none" xmlns="http://www.w3.org/2000/svg">
<g id="_&#208;&#160;&#208;&#181;&#208;&#182;&#208;&#184;&#208;&#188;_&#208;&#184;&#208;&#183;&#208;&#190;&#208;&#187;&#209;&#143;&#209;&#134;&#208;&#184;&#208;&#184;" clip-path="url(#clip0_192_2806)">
<g id="95, Award, Badge, Quality, Medal">
<g id="Group">
<path id="Vector" d="M37.8186 15.9075C37.8186 7.6449 31.0233 0.926758 22.6603 0.926758C14.2974 0.926758 7.50977 7.6449 7.50977 15.9075C7.50977 20.4634 9.54065 24.5561 12.8225 27.2588L9.15455 34.1314C9.07733 34.2858 9.07733 34.5175 9.15455 34.6719C9.23177 34.8264 9.46343 34.9036 9.6256 34.8264L15.4094 33.7453L17.7491 39.0735C17.8264 39.2279 17.9808 39.3824 18.2202 39.3824C18.3746 39.3824 18.614 39.3051 18.6912 39.1507L22.6758 31.4287L26.6603 39.1507C26.7376 39.3051 26.892 39.3824 27.1314 39.3824C27.2858 39.3824 27.5252 39.3051 27.6024 39.0735L29.9499 33.7453L35.7337 34.8264C35.8881 34.8264 36.1275 34.8264 36.2047 34.6719C36.282 34.5175 36.3592 34.2858 36.2047 34.1314L32.5368 27.2588C35.8186 24.5561 37.8495 20.4634 37.8495 15.9075H37.8186ZM18.2897 37.7607L16.1816 33.0503C16.1044 32.8186 15.8727 32.7414 15.6333 32.7414L10.475 33.7453L13.6024 27.8766C15.9422 29.5754 18.7607 30.6565 21.8804 30.8109L18.2897 37.7607ZM34.8534 33.7453L29.6951 32.7414C29.4634 32.6642 29.2241 32.8186 29.1468 33.0503L27.0387 37.7607L23.448 30.8109C26.4982 30.6565 29.3862 29.5754 31.726 27.8766L34.8534 33.7453ZM22.6681 29.8843C14.8534 29.8843 8.52907 23.6295 8.52907 15.9075C8.52907 8.18544 14.8534 1.93062 22.6603 1.93062C30.4673 1.93062 36.7993 8.18544 36.7993 15.9075C36.7993 23.6295 30.475 29.8843 22.6603 29.8843H22.6681Z" fill="#FAFAFA"/>
<path id="Vector_2" d="M22.6613 5.7915C17.0397 5.7915 12.4297 10.3475 12.4297 15.9073C12.4297 21.4672 17.0397 26.0232 22.6613 26.0232C28.283 26.0232 32.893 21.4672 32.893 15.9073C32.893 10.3475 28.3602 5.7915 22.6613 5.7915ZM22.6613 25.0965C17.5803 25.0965 13.3641 21.0039 13.3641 15.9073C13.3641 10.8108 17.503 6.71814 22.6613 6.71814C27.8196 6.71814 31.9586 10.8108 31.9586 15.9073C31.9586 21.0039 27.8196 25.0965 22.6613 25.0965Z" fill="#FAFAFA"/>
<path id="Vector_3" d="M29.225 13.668L26.8003 11.2742C26.7231 11.197 26.5686 11.1198 26.4914 11.1198C26.4142 11.1198 26.2598 11.197 26.1825 11.2742L21.6497 15.753L19.5416 13.668C19.3872 13.5136 19.0706 13.5136 18.8389 13.668L16.4142 16.0618C16.337 16.1391 16.2598 16.2935 16.2598 16.3707C16.2598 16.4479 16.337 16.6024 16.4142 16.6796L21.2559 21.4672C21.3331 21.5445 21.4876 21.6217 21.5648 21.6217C21.642 21.6217 21.7964 21.5445 21.8737 21.4672L29.1401 14.2858C29.449 14.2086 29.449 13.8997 29.2173 13.668H29.225ZM21.6497 20.5406L17.5107 16.4479L19.2327 14.7491L21.3408 16.834C21.4953 16.9885 21.8119 16.9885 22.0435 16.834L26.4991 12.4325L28.2212 14.1313L21.6574 20.5406H21.6497Z" fill="#FAFAFA"/>
<path id="Vector_4" d="M37 1C35.8958 1 35 1.89474 35 3C35 4.10526 35.8958 5 37 5C38.1042 5 39 4.10526 39 3C39 1.89474 38.0521 1 37 1ZM37 4.26316C36.2604 4.26316 35.6823 3.68421 35.6823 2.94737C35.6823 2.21053 36.2604 1.63158 37 1.63158C37.7396 1.63158 38.3177 2.21053 38.3177 2.94737C38.3177 3.68421 37.6875 4.26316 37 4.26316Z" fill="#FAFAFA"/>
<path id="Vector_5" d="M3.68043 28.417C1.80399 28.417 0.244141 29.9614 0.244141 31.8147C0.244141 33.668 1.80399 35.2124 3.68043 35.2124C5.55688 35.2124 7.11673 33.668 7.11673 31.8147C7.11673 29.9614 5.55688 28.417 3.68043 28.417ZM3.68043 34.2085C2.35225 34.2085 1.25572 33.1274 1.25572 31.8147C1.25572 30.5019 2.35225 29.4209 3.68043 29.4209C5.00862 29.4209 6.10514 30.5019 6.10514 31.8147C6.10514 33.1274 5.00862 34.2085 3.68043 34.2085Z" fill="#FAFAFA"/>
<path id="Vector_6" d="M39.5328 29.9614C39.9189 29.9614 40.2355 30.2703 40.2355 30.6564C40.2355 31.0425 39.9189 31.3514 39.5328 31.3514C39.1467 31.3514 38.8301 31.0425 38.8301 30.6564C38.8301 30.2703 39.1467 29.9614 39.5328 29.9614Z" fill="#FAFAFA"/>
<path id="Vector_7" d="M10.2437 0.463379C10.6298 0.463379 10.9464 0.772259 10.9464 1.15836C10.9464 1.54446 10.6298 1.85334 10.2437 1.85334C9.85762 1.85334 9.54102 1.54446 9.54102 1.15836C9.54102 0.772259 9.85762 0.463379 10.2437 0.463379Z" fill="#FAFAFA"/>
<path id="Vector_8" d="M2.42927 9.65247C2.81537 9.65247 3.13197 9.96135 3.13197 10.3474C3.13197 10.7335 2.81537 11.0424 2.42927 11.0424C2.04316 11.0424 1.72656 10.7335 1.72656 10.3474C1.72656 9.96135 2.04316 9.65247 2.42927 9.65247Z" fill="#FAFAFA"/>
<path id="Vector_9" d="M5.86481 23.166C6.25091 23.166 6.56751 23.4749 6.56751 23.861C6.56751 24.2471 6.25091 24.556 5.86481 24.556C5.47871 24.556 5.16211 24.2471 5.16211 23.861C5.16211 23.4749 5.47871 23.166 5.86481 23.166Z" fill="#FAFAFA"/>
<path id="Vector_10" d="M31.7261 38.6101C32.1122 38.6101 32.4288 38.919 32.4288 39.3051C32.4288 39.6912 32.1122 40.0001 31.7261 40.0001C31.34 40.0001 31.0234 39.6912 31.0234 39.3051C31.0234 38.919 31.34 38.6101 31.7261 38.6101Z" fill="#FAFAFA"/>
</g>
</g>
</g>
<defs>
<clipPath id="clip0_192_2806">
<rect width="40" height="40" fill="white"/>
</clipPath>
</defs>
</svg>
