<svg width="40" height="40" viewBox="0 0 40 40" fill="none" xmlns="http://www.w3.org/2000/svg">
<g id="_&#208;&#160;&#208;&#181;&#208;&#182;&#208;&#184;&#208;&#188;_&#208;&#184;&#208;&#183;&#208;&#190;&#208;&#187;&#209;&#143;&#209;&#134;&#208;&#184;&#208;&#184;">
<g id="83, Group, People, Team">
<g id="Group">
<path id="Vector" d="M29.0935 3.40417C29.4303 3.40417 29.7065 3.67363 29.7065 4.01044C29.7065 4.34725 29.4303 4.6167 29.0935 4.6167C28.7567 4.6167 28.4805 4.34725 28.4805 4.01044C28.4805 3.67363 28.7567 3.40417 29.0935 3.40417Z" fill="#FAFAFA"/>
<path id="Vector_2" d="M5.72628 4.68396C6.0631 4.68396 6.33928 4.95341 6.33928 5.29022C6.33928 5.62704 6.0631 5.89649 5.72628 5.89649C5.38947 5.89649 5.11328 5.62704 5.11328 5.29022C5.11328 4.95341 5.38947 4.68396 5.72628 4.68396Z" fill="#FAFAFA"/>
<path id="Vector_3" d="M10.8327 16.0684C11.1695 16.0684 11.4457 16.3378 11.4457 16.6746C11.4457 17.0114 11.1695 17.2809 10.8327 17.2809C10.4959 17.2809 10.2197 17.0114 10.2197 16.6746C10.2197 16.3378 10.4959 16.0684 10.8327 16.0684Z" fill="#FAFAFA"/>
<path id="Vector_4" d="M26.1711 19.0322C26.5079 19.0322 26.7841 19.3017 26.7841 19.6385C26.7841 19.9753 26.5079 20.2448 26.1711 20.2448C25.8343 20.2448 25.5581 19.9753 25.5581 19.6385C25.5581 19.3017 25.8343 19.0322 26.1711 19.0322Z" fill="#FAFAFA"/>
<path id="Vector_5" d="M18.8757 32.9089C19.2125 32.9089 19.4887 33.1784 19.4887 33.5152C19.4887 33.852 19.2125 34.1215 18.8757 34.1215C18.5389 34.1215 18.2627 33.852 18.2627 33.5152C18.2627 33.1784 18.5389 32.9089 18.8757 32.9089Z" fill="#FAFAFA"/>
<path id="Vector_6" d="M38.0944 10.1404C38.4313 10.1404 38.7074 10.4098 38.7074 10.7466C38.7074 11.0835 38.4313 11.3529 38.0944 11.3529C37.7576 11.3529 37.4814 11.0835 37.4814 10.7466C37.4814 10.4098 37.7576 10.1404 38.0944 10.1404Z" fill="#FAFAFA"/>
<path id="Vector_7" d="M40.0003 30.147C40.0003 26.1052 36.6591 22.8044 32.5702 22.8044C28.4813 22.8044 25.0728 26.1052 25.0728 30.147C25.0728 34.1887 28.4139 37.4895 32.5029 37.4895C36.5918 37.4895 40.0003 34.1887 40.0003 30.147ZM32.5029 23.6128C36.1135 23.6128 39.1112 26.5094 39.1112 30.147C39.1112 31.3595 38.7676 32.4373 38.222 33.4478C37.198 32.2352 35.8373 31.4269 34.4092 31.0227C35.157 30.4838 35.7026 29.5407 35.7026 28.5303C35.7026 26.8462 34.2745 25.4316 32.5702 25.4316C30.8659 25.4316 29.4379 26.8462 29.4379 28.5303C29.4379 29.5407 29.9161 30.4838 30.7312 31.0227C29.229 31.4269 27.8683 32.2352 26.9185 33.4478C26.3729 32.5047 26.0293 31.3595 26.0293 30.147C25.9619 26.5094 28.8922 23.6128 32.5029 23.6128ZM30.2529 28.5303C30.2529 27.3177 31.2769 26.3073 32.5029 26.3073C33.7289 26.3073 34.7528 27.3177 34.7528 28.5303C34.7528 29.7428 33.7289 30.7532 32.5029 30.7532C31.2769 30.7532 30.2529 29.8102 30.2529 28.5303ZM32.5029 36.6812C30.3877 36.6812 28.4813 35.6707 27.3227 34.1887C28.5487 32.6394 30.5224 31.6963 32.5029 31.6963C34.4833 31.6963 36.4571 32.6394 37.6831 34.1887C36.5244 35.6707 34.6181 36.6812 32.5029 36.6812Z" fill="#FAFAFA"/>
<path id="Vector_8" d="M27.1874 10.3423C27.1874 6.30053 23.8462 2.99976 19.7573 2.99976C15.6683 2.99976 12.3271 6.30053 12.3271 10.3423C12.3271 14.3841 15.3922 17.4827 19.3463 17.6848V25.4989L16.4161 28.3955C16.2813 28.5302 16.2813 28.7997 16.4161 29.0018C16.4834 29.0691 16.6182 29.1365 16.6855 29.1365C16.7529 29.1365 16.8876 29.0691 16.955 29.0018L19.7505 26.2399L22.5461 29.0018C22.6808 29.1365 22.957 29.1365 23.1591 29.0018C23.2938 28.8671 23.2938 28.5976 23.1591 28.3955L20.2288 25.4989V17.6848C24.1156 17.4827 27.1806 14.2493 27.1806 10.3423H27.1874ZM19.764 3.80811C23.3746 3.80811 26.3723 6.70471 26.3723 10.3423C26.3723 11.5548 26.0287 12.6326 25.4898 13.6431C24.4659 12.4305 23.1052 11.6222 21.6704 11.218C22.4181 10.6791 22.9637 9.73603 22.9637 8.72559C22.9637 7.04152 21.5356 5.6269 19.8314 5.6269C18.1271 5.6269 16.699 7.04152 16.699 8.72559C16.699 9.73603 17.1773 10.6791 17.9924 11.218C16.4902 11.6222 15.1294 12.4305 14.1796 13.6431C13.634 12.7 13.2972 11.5548 13.2972 10.3423C13.1624 6.77207 16.0927 3.80811 19.7707 3.80811H19.764ZM17.4467 8.72559C17.4467 7.51306 18.4706 6.50262 19.6966 6.50262C20.9226 6.50262 21.9466 7.51306 21.9466 8.72559C21.9466 9.93812 20.9226 10.9486 19.6966 10.9486C18.4706 11.0159 17.4467 10.0055 17.4467 8.72559ZM14.5164 14.3841C15.7424 12.8347 17.7162 11.8916 19.6966 11.8916C21.6771 11.8916 23.6508 12.8347 24.8768 14.3841C23.6508 15.9334 21.8118 16.8765 19.6966 16.8765C17.5814 16.8765 15.7424 15.866 14.5164 14.3841Z" fill="#FAFAFA"/>
<path id="Vector_9" d="M14.8535 30.147C14.8535 26.1052 11.5123 22.8044 7.42338 22.8044C3.33446 22.8044 0 26.1052 0 30.147C0 34.1887 3.27383 37.4895 7.43011 37.4895C11.5864 37.4895 14.8602 34.1887 14.8602 30.147H14.8535ZM7.42338 23.6128C11.034 23.6128 14.0317 26.5094 14.0317 30.147C14.0317 31.3595 13.6881 32.4373 13.1492 33.4478C12.1253 32.2352 10.7646 31.4269 9.33648 31.0227C10.0842 30.4838 10.6298 29.5407 10.6298 28.5303C10.6298 26.8462 9.20175 25.4316 7.49747 25.4316C5.7932 25.4316 4.36511 26.8462 4.36511 28.5303C4.36511 29.5407 4.84338 30.4838 5.65847 31.0227C4.15628 31.4269 2.79555 32.2352 1.84574 33.4478C1.3001 32.5047 0.956551 31.3595 0.956551 30.147C0.821826 26.5094 3.7521 23.6128 7.43011 23.6128H7.42338ZM5.1061 28.5303C5.1061 27.3177 6.13001 26.3073 7.35601 26.3073C8.58201 26.3073 9.60593 27.3177 9.60593 28.5303C9.60593 29.7428 8.58201 30.7532 7.35601 30.7532C6.13001 30.7532 5.1061 29.8102 5.1061 28.5303ZM7.42338 36.6812C5.30819 36.6812 3.40182 35.6707 2.24318 34.1887C3.46918 32.6394 5.44291 31.6963 7.42338 31.6963C9.40384 31.6963 11.3776 32.6394 12.6036 34.1887C11.3776 35.6707 9.53857 36.6812 7.42338 36.6812Z" fill="#FAFAFA"/>
<path id="Vector_10" d="M34.4837 18.9648C36.3901 18.9648 37.8923 17.4828 37.8923 15.5967C37.8923 13.7105 36.3901 12.2285 34.4837 12.2285C32.5774 12.2285 31.0752 13.7105 31.0752 15.5967C31.0752 17.4828 32.5774 18.9648 34.4837 18.9648ZM34.4837 13.1042C35.9118 13.1042 37.0705 14.2494 37.0705 15.664C37.0705 17.0786 35.9118 18.2238 34.4837 18.2238C33.0557 18.2238 31.897 17.0113 31.897 15.5967C31.897 14.182 33.0557 13.1042 34.4837 13.1042Z" fill="#FAFAFA"/>
<path id="Vector_11" d="M5.04571 19.4363C6.4738 19.4363 7.63244 18.2912 7.63244 16.8766C7.63244 15.4619 6.4738 14.3168 5.04571 14.3168C3.61762 14.3168 2.45898 15.4619 2.45898 16.8766C2.45898 18.2912 3.68499 19.4363 5.04571 19.4363ZM5.04571 15.1925C6.00226 15.1925 6.74999 15.9335 6.74999 16.8766C6.74999 17.8196 6.00226 18.5606 5.04571 18.5606C4.08916 18.5606 3.34144 17.8196 3.34144 16.8766C3.34144 15.9335 4.08916 15.1925 5.04571 15.1925Z" fill="#FAFAFA"/>
</g>
</g>
</g>
</svg>
