<svg width="40" height="40" viewBox="0 0 40 40" fill="none" xmlns="http://www.w3.org/2000/svg">
<g id="_&#208;&#160;&#208;&#181;&#208;&#182;&#208;&#184;&#208;&#188;_&#208;&#184;&#208;&#183;&#208;&#190;&#208;&#187;&#209;&#143;&#209;&#134;&#208;&#184;&#208;&#184;">
<g id="84, Award, Badge, Quality">
<g id="Group">
<path id="Vector" d="M34.9047 38.1584C35.273 38.1584 35.5751 38.4531 35.5751 38.8214C35.5751 39.1898 35.273 39.4844 34.9047 39.4844C34.5364 39.4844 34.2344 39.1898 34.2344 38.8214C34.2344 38.4531 34.5364 38.1584 34.9047 38.1584Z" fill="#FAFAFA"/>
<path id="Vector_2" d="M38.184 26.2246C38.5523 26.2246 38.8544 26.5193 38.8544 26.8876C38.8544 27.2559 38.5523 27.5506 38.184 27.5506C37.8157 27.5506 37.5137 27.2559 37.5137 26.8876C37.5137 26.5193 37.8157 26.2246 38.184 26.2246Z" fill="#FAFAFA"/>
<path id="Vector_3" d="M32.143 0.884033C32.5113 0.884033 32.8134 1.17869 32.8134 1.54702C32.8134 1.91534 32.5113 2.21 32.143 2.21C31.7747 2.21 31.4727 1.91534 31.4727 1.54702C31.4727 1.17869 31.7747 0.884033 32.143 0.884033Z" fill="#FAFAFA"/>
<path id="Vector_4" d="M8.37152 0C8.73985 0 9.04187 0.294659 9.04187 0.662983C9.04187 1.03131 8.73985 1.32597 8.37152 1.32597C8.0032 1.32597 7.70117 1.03131 7.70117 0.662983C7.70117 0.294659 8.0032 0 8.37152 0Z" fill="#FAFAFA"/>
<path id="Vector_5" d="M1.81488 11.4917C2.18321 11.4917 2.48523 11.7864 2.48523 12.1547C2.48523 12.523 2.18321 12.8177 1.81488 12.8177C1.44656 12.8177 1.14453 12.523 1.14453 12.1547C1.14453 11.7864 1.44656 11.4917 1.81488 11.4917Z" fill="#FAFAFA"/>
<path id="Vector_6" d="M3.67816 22.5415C4.04649 22.5415 4.34851 22.8362 4.34851 23.2045C4.34851 23.5728 4.04649 23.8675 3.67816 23.8675C3.30984 23.8675 3.00781 23.5728 3.00781 23.2045C3.00781 22.8362 3.30984 22.5415 3.67816 22.5415Z" fill="#FAFAFA"/>
<path id="Vector_7" d="M11.6567 38.6741C12.025 38.6741 12.327 38.9687 12.327 39.3371C12.327 39.7054 12.025 40 11.6567 40C11.2884 40 10.9863 39.7054 10.9863 39.3371C10.9863 38.9687 11.2884 38.6741 11.6567 38.6741Z" fill="#FAFAFA"/>
<path id="Vector_8" d="M34.8327 11.7127L33.4183 10.5341C32.8953 10.1658 32.6007 9.57645 32.527 8.98713L32.1513 7.07184C31.8566 5.37755 30.3613 4.12525 28.5712 4.12525H26.7075C26.0371 4.12525 25.4404 3.90426 24.9911 3.53593L23.5767 2.35729C22.236 1.25232 20.225 1.25232 18.8843 2.35729L17.3962 3.53593C16.8732 3.90426 16.2765 4.12525 15.6799 4.12525H13.8161C12.0261 4.12525 10.538 5.37755 10.236 7.07184L9.94136 8.91346C9.8677 9.50278 9.492 10.0921 9.05002 10.4604L7.63565 11.6391C6.29495 12.744 5.91926 14.6593 6.81797 16.2063L7.78298 17.8269C8.07764 18.3426 8.23234 19.0055 8.07764 19.5949L7.78298 21.4365C7.48832 23.1308 8.45333 24.8251 10.0961 25.4144L11.8861 26.0774C12.4091 26.2247 12.7775 26.593 13.1531 26.9613L8.4607 34.9171C8.38703 35.0645 8.38703 35.2855 8.4607 35.4328C8.53436 35.5801 8.75536 35.6538 8.91005 35.6538L14.4275 34.6225L16.667 39.7054C16.8143 40.0737 17.3373 40.0737 17.4846 39.7054L21.2857 32.5599L25.0868 39.7054C25.1605 39.8527 25.3078 39.9264 25.5362 39.9264C25.6835 39.9264 25.9119 39.8527 25.9856 39.6317L28.225 34.5488L33.7425 35.5801C33.8898 35.5801 34.1182 35.5065 34.1918 35.3591C34.2655 35.2118 34.3392 34.9908 34.1918 34.8435L29.4257 26.9613C29.7204 26.5194 30.1697 26.2247 30.6191 26.0774L32.4091 25.4144C34.0519 24.8251 35.0169 23.1308 34.7222 21.4365L34.4275 19.5949C34.3539 19.0055 34.4276 18.3426 34.7222 17.8269L35.6872 16.2063C36.5049 14.733 36.2102 12.8177 34.8695 11.7127H34.8327ZM27.9008 33.6648C27.6799 33.5912 27.4515 33.7385 27.3778 33.9595L25.3668 38.4531L21.5657 31.3812C21.4183 31.0866 20.8953 31.0866 20.748 31.3812L16.9469 38.4531L14.9358 33.9595C14.8622 33.7385 14.6412 33.6648 14.4128 33.6648L9.56567 34.5488L13.5141 27.8453L14.1108 28.803C15.0021 30.3499 16.8659 31.0129 18.5086 30.3499L20.2986 29.6869C20.8953 29.4659 21.5657 29.4659 22.1624 29.6869L23.9524 30.3499C25.5951 30.9392 27.4515 30.2763 28.3502 28.803L28.9469 27.8453L32.8953 34.5488L27.9008 33.6648ZM34.8327 15.7643L33.8677 17.3849C33.4183 18.1216 33.271 19.0055 33.4183 19.8159L33.713 21.6575C33.934 22.9098 33.19 24.1621 31.9966 24.6041L30.2066 25.2671C29.3889 25.5617 28.7922 26.0774 28.3428 26.814C27.2231 28.7293 27.3778 28.4346 27.3778 28.4346C26.7075 29.5396 25.3668 30.0553 24.0997 29.6133L22.3097 28.9503C21.492 28.6556 20.5933 28.6556 19.8493 28.9503L18.1329 29.6133C16.8659 30.0553 15.5252 29.5396 14.8548 28.4346L13.8824 26.814C13.4331 26.0774 12.7627 25.488 11.945 25.2671L10.155 24.6041C8.88795 24.1621 8.2176 22.9098 8.4386 21.6575L8.73326 19.8159C8.88059 19.0055 8.73326 18.1216 8.2839 17.3849L7.31889 15.7643C6.64854 14.6593 6.9432 13.186 7.91558 12.3757L9.32994 11.1971C10.0003 10.6814 10.4496 9.87111 10.597 9.06079L10.8916 7.21917C11.1126 5.96687 12.2323 5.00923 13.573 5.00923H15.4368C16.2544 5.00923 17.1531 4.71457 17.7498 4.19891L19.1642 3.02028C20.2102 2.20996 21.6246 2.20996 22.6633 3.02028L24.0776 4.19891C24.748 4.71457 25.5657 5.00923 26.3907 5.00923H28.5491C29.8898 5.00923 31.0095 5.96687 31.2305 7.21917L31.5252 9.06079C31.6725 9.87111 32.1218 10.6814 32.7922 11.1971L34.2066 12.3757C35.1716 13.2597 35.3999 14.6593 34.8032 15.7643H34.8327Z" fill="#FAFAFA"/>
<path id="Vector_9" d="M21.1882 6.99805C16.0464 6.99805 11.877 11.1233 11.877 16.2062C11.877 21.289 16.0464 25.4143 21.1882 25.4143C26.33 25.4143 30.4994 21.289 30.4994 16.2062C30.4994 11.1233 26.3226 6.99805 21.1882 6.99805ZM21.1882 24.4566C16.5694 24.4566 12.7683 20.7734 12.7683 16.1325C12.7683 11.4916 16.4957 7.80836 21.1882 7.80836C25.8806 7.80836 29.6081 11.4916 29.6081 16.1325C29.6081 20.7734 25.807 24.4566 21.1882 24.4566Z" fill="#FAFAFA"/>
<path id="Vector_10" d="M25.815 14.2173H22.6106L21.6382 11.197C21.5645 10.976 21.4172 10.9023 21.1888 10.9023C20.9605 10.9023 20.8131 11.0497 20.7395 11.197L19.7745 14.2173H16.5701C16.3491 14.2173 16.1944 14.3646 16.1207 14.5119C16.047 14.6593 16.1207 14.8802 16.268 15.0276L18.8758 16.8692L17.9108 19.8895C17.8371 20.1104 17.9108 20.2578 18.0581 20.4051C18.1317 20.4788 18.2054 20.4788 18.3527 20.4788C18.5001 20.4788 18.5737 20.4788 18.6474 20.4051L21.2551 18.5635L23.8629 20.4051C24.0102 20.5524 24.2386 20.5524 24.3859 20.4051C24.5332 20.2578 24.6069 20.1104 24.5332 19.8895L23.5682 16.8692L26.1759 15.0276C26.3233 14.8802 26.3969 14.7329 26.3233 14.5119C26.1759 14.3646 25.9476 14.2173 25.8003 14.2173H25.815ZM22.6842 16.3535C22.5369 16.5009 22.4632 16.6482 22.5369 16.8692L23.2073 18.8581L21.4909 17.6058C21.4172 17.5322 21.3435 17.5322 21.1962 17.5322C21.0489 17.5322 20.9752 17.5322 20.9015 17.6058L19.1852 18.8581L19.8555 16.8692C19.9292 16.6482 19.8555 16.5009 19.7082 16.3535L17.9918 15.1749H20.0765C20.2975 15.1749 20.4522 15.0276 20.5259 14.8802L21.1962 12.8913L21.8666 14.8802C21.9402 15.1012 22.0875 15.1749 22.3159 15.1749H24.4006L22.6842 16.3535Z" fill="#FAFAFA"/>
<path id="Vector_11" d="M38 3C36.8958 3 36 3.89474 36 5C36 6.10526 36.8958 7 38 7C39.1042 7 40 6.10526 40 5C40 3.89474 39.1042 3 38 3ZM38 6.31579C37.2604 6.31579 36.6823 5.73684 36.6823 5C36.6823 4.26316 37.2604 3.68421 38 3.68421C38.7396 3.68421 39.3177 4.26316 39.3177 5C39.3177 5.73684 38.7396 6.31579 38 6.31579Z" fill="#FAFAFA"/>
<path id="Vector_12" d="M2.73047 28.5083C2.1844 28.5083 1.73047 28.9628 1.73047 29.5083C1.73047 30.0538 2.1844 30.5083 2.73047 30.5083C3.27654 30.5083 3.73047 30.0538 3.73047 29.5083C3.73047 28.9628 3.27654 28.5083 2.73047 28.5083ZM2.73047 30.2128C2.34395 30.2128 2.02485 29.8947 2.02485 29.5083C2.02485 29.1219 2.34395 28.8038 2.73047 28.8038C3.11699 28.8038 3.43609 29.1219 3.43609 29.5083C3.43609 29.8947 3.11699 30.2128 2.73047 30.2128Z" fill="#FAFAFA"/>
</g>
</g>
</g>
</svg>
