<svg width="40" height="40" viewBox="0 0 40 40" fill="none" xmlns="http://www.w3.org/2000/svg">
<g id="_&#208;&#160;&#208;&#181;&#208;&#182;&#208;&#184;&#208;&#188;_&#208;&#184;&#208;&#183;&#208;&#190;&#208;&#187;&#209;&#143;&#209;&#134;&#208;&#184;&#208;&#184;" clip-path="url(#clip0_192_2731)">
<g id="76, Brain, Gear, Mind, Setting">
<g id="Group">
<path id="Vector" d="M11.4898 36.6794C11.8759 36.6794 12.1925 36.9883 12.1925 37.3744C12.1925 37.7605 11.8759 38.0694 11.4898 38.0694C11.1037 38.0694 10.7871 37.7605 10.7871 37.3744C10.7871 36.9883 11.1037 36.6794 11.4898 36.6794Z" fill="#FAFAFA"/>
<path id="Vector_2" d="M37.1109 38.6101C37.497 38.6101 37.8136 38.919 37.8136 39.3051C37.8136 39.6912 37.497 40.0001 37.1109 40.0001C36.7248 40.0001 36.4082 39.6912 36.4082 39.3051C36.4082 38.919 36.7248 38.6101 37.1109 38.6101Z" fill="#FAFAFA"/>
<path id="Vector_3" d="M7.59137 0C7.97747 0 8.29408 0.30888 8.29408 0.694981C8.29408 1.08108 7.97747 1.38996 7.59137 1.38996C7.20527 1.38996 6.88867 1.08108 6.88867 0.694981C6.88867 0.30888 7.20527 0 7.59137 0Z" fill="#FAFAFA"/>
<path id="Vector_4" d="M2.20075 11.583C2.58685 11.583 2.90345 11.8919 2.90345 12.278C2.90345 12.6641 2.58685 12.973 2.20075 12.973C1.81465 12.973 1.49805 12.6641 1.49805 12.278C1.49805 11.8919 1.81465 11.583 2.20075 11.583Z" fill="#FAFAFA"/>
<path id="Vector_5" d="M6.57184 24.6333C6.95794 24.6333 7.27455 24.9422 7.27455 25.3283C7.27455 25.7144 6.95794 26.0233 6.57184 26.0233C6.18574 26.0233 5.86914 25.7144 5.86914 25.3283C5.86914 24.9422 6.18574 24.6333 6.57184 24.6333Z" fill="#FAFAFA"/>
<path id="Vector_6" d="M3.44377 29.4209C1.8067 29.4209 0.478516 30.7336 0.478516 32.3553C0.478516 33.9769 1.8067 35.2896 3.44377 35.2896C5.08083 35.2896 6.40902 33.9769 6.40902 32.3553C6.40902 30.7336 5.00361 29.4209 3.44377 29.4209ZM3.44377 34.2085C2.34724 34.2085 1.4901 33.3591 1.4901 32.278C1.4901 31.197 2.34724 30.3475 3.44377 30.3475C4.54029 30.3475 5.39743 31.197 5.39743 32.278C5.39743 33.3591 4.46307 34.2085 3.44377 34.2085Z" fill="#FAFAFA"/>
<path id="Vector_7" d="M38.2849 14.6718L37.1884 13.4363C37.42 13.0502 37.5822 12.5869 37.7366 12.1236L39.3737 11.9691C39.6054 11.9691 39.8447 11.7375 39.8447 11.5058V8.41699C39.8447 8.18533 39.6131 7.95367 39.3737 7.95367L37.7366 7.79923C37.5822 7.33591 37.4277 6.94981 37.1884 6.48649L38.2849 5.25097C38.4393 5.09653 38.4393 4.78765 38.2849 4.6332L36.0996 2.47104C35.9451 2.3166 35.6285 2.3166 35.4741 2.47104L34.2231 3.55212C33.8293 3.32046 33.366 3.16602 32.8949 3.01158L32.7405 1.38996C32.7405 1.1583 32.5088 0.926641 32.2694 0.926641H29.142C28.9104 0.926641 28.671 1.1583 28.671 1.38996L28.5938 2.00772C26.4857 0.694981 24.061 0 21.4818 0H20.4625C13.2115 0 7.35052 5.71429 7.2733 12.973L5.31964 20.6178C5.24242 20.9266 5.47408 21.2355 5.79068 21.2355H10.1691V30.4247C10.1691 30.6564 10.4007 30.888 10.6401 30.888H16.1073C16.1073 39.7683 16.1073 39.1506 16.1073 39.2278C16.1845 39.3822 16.2617 39.5367 16.4162 39.5367C16.4934 39.5367 15.2424 39.5367 34.0687 39.5367C34.3003 39.5367 34.5397 39.305 34.5397 39.0734V16.9112L35.2424 17.529C35.3969 17.6834 35.7135 17.6834 35.8679 17.529L38.0532 15.3668C38.4471 15.1351 38.4471 14.9035 38.2849 14.6718ZM11.2579 29.8842V20.695C11.2579 20.4633 11.0262 20.2317 10.7868 20.2317H6.5706C8.44705 12.6641 8.36983 13.1274 8.36983 12.973C8.36983 6.33205 13.837 0.926641 20.5552 0.926641H21.5745C24.0764 0.926641 26.4162 1.62162 28.4471 3.01158C28.0532 3.16602 27.6671 3.32046 27.2733 3.55212L26.0223 2.47104C25.8679 2.3166 25.5513 2.3166 25.3969 2.47104L23.2115 4.6332C23.0571 4.78765 23.0571 5.09653 23.2115 5.25097L24.3081 6.48649C24.0764 6.87259 23.9142 7.33591 23.7598 7.79923L22.1227 7.95367C21.8911 7.95367 21.6517 8.18533 21.6517 8.41699V11.5058C21.6517 11.7375 21.8833 11.9691 22.1227 11.9691L23.7598 12.1236C23.9142 12.5869 24.0764 12.973 24.3081 13.4363L23.2115 14.6718C23.0571 14.8263 23.0571 15.1351 23.2115 15.2896L25.3969 17.4517C25.5513 17.6062 25.8679 17.6062 26.0223 17.4517L27.2733 16.3707C27.6594 16.6023 28.1304 16.7568 28.6015 16.9112L28.7559 18.5328C28.7559 18.7645 28.9876 18.9961 29.227 18.9961H32.3544C32.586 18.9961 32.8254 18.7645 32.8254 18.5328L32.9799 16.9112C33.2965 16.834 33.5281 16.6795 33.837 16.6023V28.9575L17.1961 35.3668V30.2703C17.1961 30.0386 16.9644 29.807 16.725 29.807H11.2579V29.8842ZM17.1189 36.5251L33.7598 30.1158V31.9691L17.1189 38.3784V36.5251ZM19.227 38.61L33.6749 33.0502V38.61H19.227ZM35.7057 16.5251L34.532 15.5212C34.3776 15.3668 34.1382 15.3668 33.9837 15.444C33.4355 15.7529 32.8872 15.9846 32.2617 16.139C32.0301 16.2162 31.9528 16.3707 31.8679 16.6023L31.7135 18.1467H29.5281L29.3737 16.6023C29.3737 16.3707 29.2193 16.2162 28.9799 16.139C28.3544 15.9846 27.8061 15.7529 27.2656 15.444C27.1111 15.3668 26.8718 15.3668 26.7173 15.5212L25.6208 16.5251L24.061 14.9807L25.0725 13.8224C25.227 13.668 25.227 13.4363 25.1498 13.2819C24.8332 12.7413 24.6015 12.2008 24.4471 11.583C24.3698 11.3514 24.2154 11.2741 23.976 11.1969L22.4162 11.0425V8.88031L23.976 8.72587C24.2077 8.72587 24.3698 8.57143 24.4471 8.33977C24.6015 7.72201 24.8409 7.18147 25.1498 6.64093C25.227 6.48649 25.227 6.25483 25.0725 6.10039L24.061 4.94209L25.6208 3.39768L26.7945 4.40154C26.949 4.55598 27.1884 4.55598 27.3428 4.47877C27.8911 4.16988 28.4393 3.93822 29.0648 3.78378C29.2965 3.70656 29.3737 3.55212 29.4586 3.32046L29.6131 1.77606H31.7212L31.8756 3.32046C31.8756 3.55212 32.0301 3.70656 32.2694 3.78378C32.8949 3.93822 33.4432 4.16988 33.9915 4.47877C34.1459 4.55598 34.3853 4.55598 34.5397 4.40154L35.7135 3.39768L37.2733 4.94209L36.254 6.10039C36.0996 6.25483 36.0996 6.48649 36.1768 6.64093C36.4857 7.18147 36.725 7.72201 36.8795 8.33977C36.9567 8.57143 37.1111 8.64865 37.3505 8.72587L38.9104 8.88031V11.1197L37.3505 11.2741C37.1189 11.2741 36.9567 11.4286 36.8795 11.6602C36.725 12.278 36.4857 12.8185 36.1768 13.3591C36.0996 13.5135 36.0996 13.7452 36.254 13.8996L37.1884 14.9807L35.7057 16.5251Z" fill="#FAFAFA"/>
<path id="Vector_8" d="M30.6329 5.01929C27.8993 5.01929 25.6367 7.25867 25.6367 9.96137C25.6367 12.6641 27.8993 14.9035 30.6329 14.9035C33.3664 14.9035 35.629 12.6641 35.629 9.96137C35.629 7.25867 33.4437 5.01929 30.6329 5.01929ZM30.6329 13.9768C28.3703 13.9768 26.5711 12.2008 26.5711 9.96137C26.5711 7.72199 28.3703 5.94593 30.6329 5.94593C32.8954 5.94593 34.6946 7.72199 34.6946 9.96137C34.6946 12.2008 32.8954 13.9768 30.6329 13.9768Z" fill="#FAFAFA"/>
<path id="Vector_9" d="M30.6322 7.10425C28.9951 7.10425 27.7441 8.41699 27.7441 9.96139C27.7441 11.583 29.0723 12.8185 30.6322 12.8185C32.2692 12.8185 33.5202 11.5058 33.5202 9.96139C33.5974 8.41699 32.2692 7.10425 30.6322 7.10425ZM30.6322 11.8919C29.5356 11.8919 28.6785 11.0425 28.6785 9.96139C28.6785 8.88031 29.5356 8.03089 30.6322 8.03089C31.7287 8.03089 32.5858 8.88031 32.5858 9.96139C32.5858 11.0425 31.7287 11.8919 30.6322 11.8919Z" fill="#FAFAFA"/>
</g>
</g>
</g>
<defs>
<clipPath id="clip0_192_2731">
<rect width="40" height="40" fill="white"/>
</clipPath>
</defs>
</svg>
