<svg width="40" height="40" viewBox="0 0 40 40" fill="none" xmlns="http://www.w3.org/2000/svg">
<g id="_&#208;&#160;&#208;&#181;&#208;&#182;&#208;&#184;&#208;&#188;_&#208;&#184;&#208;&#183;&#208;&#190;&#208;&#187;&#209;&#143;&#209;&#134;&#208;&#184;&#208;&#184;" clip-path="url(#clip0_192_2784)">
<g id="80, Antivirus, Protection, Shield, Failed">
<g id="Group">
<path id="Vector" d="M25.7966 18.0348L23.8467 16.108C23.7697 16.0309 23.6155 15.9539 23.5385 15.9539C23.4614 15.9539 23.3072 16.0309 23.2302 16.108L21.2032 18.1119L19.1762 16.108C19.0992 16.0309 18.945 15.9539 18.8679 15.9539C18.7138 15.9539 18.6367 16.0309 18.5597 16.108L16.6097 18.0348C16.4556 18.1889 16.4556 18.4972 16.6097 18.7284L18.6367 20.7323L16.6097 22.6591C16.4556 22.8132 16.4556 23.1215 16.6097 23.3527L18.5597 25.2795C18.7138 25.4336 19.0298 25.4336 19.261 25.2795L21.288 23.2756L23.3149 25.2795C23.392 25.3566 23.5462 25.4336 23.6232 25.4336C23.7774 25.4336 23.8544 25.3566 23.9315 25.2795L25.8814 23.3527C25.9585 23.2756 26.0356 23.1215 26.0356 23.0444C26.0356 22.9673 25.9585 22.8132 25.8814 22.7361L23.8544 20.7323L25.8814 18.7284C26.0356 18.4972 26.0356 18.1889 25.8044 18.0348H25.7966ZM22.8371 20.3469C22.683 20.5011 22.683 20.8093 22.8371 21.0406L24.8641 23.0444L23.5385 24.2005L21.5115 22.1966C21.4344 22.1196 21.2803 22.0425 21.2032 22.0425C21.1261 22.0425 20.972 22.1196 20.8949 22.1966L18.8679 24.2005L17.6194 22.9673L19.6464 20.9635C19.8005 20.8093 19.8005 20.5011 19.6464 20.2698L17.6194 18.266L18.8679 17.0329L20.8949 19.0367C20.972 19.1138 21.1261 19.1909 21.2032 19.1909C21.2803 19.1909 21.4344 19.1138 21.5115 19.0367L23.5385 17.0329L24.787 18.266L22.8371 20.3469Z" fill="#FAFAFA"/>
<path id="Vector_2" d="M36.7878 19.4992L36.2406 10.7901C36.2406 10.5589 36.0094 10.3277 35.7705 10.3277C33.5893 10.3277 31.4853 8.16968 31.3234 5.70339C31.3234 5.47218 31.0922 5.24097 30.8533 5.24097H11.5238C11.2926 5.24097 11.0537 5.47218 11.0537 5.70339C10.8996 8.16968 8.87258 10.3277 6.60668 10.3277C6.37547 10.3277 6.13655 10.5589 6.13655 10.7901L5.58934 19.4992C5.35813 22.1967 5.82056 24.8941 6.91497 27.2834C8.00938 29.7496 9.79743 31.8306 11.9863 33.4491L20.8726 39.846C21.0267 40.0001 21.2656 40.0001 21.4198 39.846L30.3832 33.4491C34.9073 30.2121 37.3196 24.8941 36.7724 19.4992H36.7878ZM29.8514 32.6783L21.1963 38.8441L12.5412 32.6783C8.33308 29.6726 6.06718 24.6629 6.53732 19.5762C6.53732 19.5762 6.53732 19.8845 7.00745 11.2525C9.42749 11.0213 11.5315 8.86332 11.9169 6.16582H30.3909C30.7839 8.78625 32.888 10.9442 35.3003 11.2525L35.8475 19.5762C36.3177 24.6629 34.0518 29.6726 29.8437 32.6783H29.8514Z" fill="#FAFAFA"/>
<path id="Vector_3" d="M13.1662 0C13.5515 0 13.8675 0.308285 13.8675 0.693642C13.8675 1.079 13.5515 1.38728 13.1662 1.38728C12.7808 1.38728 12.4648 1.079 12.4648 0.693642C12.4648 0.308285 12.7808 0 13.1662 0Z" fill="#FAFAFA"/>
<path id="Vector_4" d="M0.53338 19.7302C0.918736 19.7302 1.23473 20.0385 1.23473 20.4239C1.23473 20.8092 0.918736 21.1175 0.53338 21.1175C0.148024 21.1175 -0.167969 20.8092 -0.167969 20.4239C-0.167969 20.0385 0.148024 19.7302 0.53338 19.7302Z" fill="#FAFAFA"/>
<path id="Vector_5" d="M5.83611 37.0713C6.22147 37.0713 6.53746 37.3796 6.53746 37.7649C6.53746 38.1503 6.22147 38.4586 5.83611 38.4586C5.45076 38.4586 5.13477 38.1503 5.13477 37.7649C5.13477 37.3796 5.45076 37.0713 5.83611 37.0713Z" fill="#FAFAFA"/>
<path id="Vector_6" d="M38.9689 23.5837C39.3543 23.5837 39.6703 23.892 39.6703 24.2774C39.6703 24.6627 39.3543 24.971 38.9689 24.971C38.5836 24.971 38.2676 24.6627 38.2676 24.2774C38.2676 23.892 38.5836 23.5837 38.9689 23.5837Z" fill="#FAFAFA"/>
<path id="Vector_7" d="M29.7658 38.5356C30.1512 38.5356 30.4672 38.8439 30.4672 39.2293C30.4672 39.6146 30.1512 39.9229 29.7658 39.9229C29.3804 39.9229 29.0645 39.6146 29.0645 39.2293C29.0645 38.8439 29.3804 38.5356 29.7658 38.5356Z" fill="#FAFAFA"/>
<path id="Vector_8" d="M21.1969 11.0212C15.8173 11.0212 11.4551 15.3372 11.4551 20.6552C11.4551 25.9731 15.8173 30.2891 21.1969 30.2891C26.5765 30.2891 30.9464 25.9731 30.9464 20.6552C30.9464 15.3372 26.5765 11.0212 21.1969 11.0212ZM21.1969 29.3642C16.3645 29.3642 12.3876 25.5106 12.3876 20.6552C12.3876 15.7997 16.2874 11.9461 21.1969 11.9461C26.1063 11.9461 30.0061 15.7997 30.0061 20.6552C30.0061 25.5106 26.0293 29.3642 21.1969 29.3642Z" fill="#FAFAFA"/>
<path id="Vector_9" d="M38.5 35C37.6809 35 37 35.6818 37 36.5C37 37.3182 37.6809 38 38.5 38C39.3191 38 40 37.3182 40 36.5C40 35.6818 39.3191 35 38.5 35ZM38.5 37.5568C37.9202 37.5568 37.4416 37.0795 37.4416 36.5C37.4416 35.9205 37.9202 35.4432 38.5 35.4432C39.0798 35.4432 39.5584 35.9205 39.5584 36.5C39.5584 37.0795 39.0798 37.5568 38.5 37.5568Z" fill="#FAFAFA"/>
<path id="Vector_10" d="M6.61351 4.77837C6.61351 3.46816 5.5191 2.38916 4.19348 2.38916C2.86785 2.38916 1.77344 3.46816 1.77344 4.77837C1.77344 6.08858 2.86785 7.16758 4.19348 7.16758C5.5191 7.16758 6.61351 6.08858 6.61351 4.77837ZM4.1164 6.24272C3.33798 6.24272 2.63664 5.62615 2.63664 4.77837C2.63664 3.93059 3.26091 3.31402 4.1164 3.31402C4.9719 3.31402 5.59617 3.93059 5.59617 4.77837C5.59617 5.62615 4.9719 6.24272 4.1164 6.24272Z" fill="#FAFAFA"/>
</g>
</g>
</g>
<defs>
<clipPath id="clip0_192_2784">
<rect width="40" height="40" fill="white"/>
</clipPath>
</defs>
</svg>
