<svg width="134" height="107" viewBox="0 0 134 107" fill="none" xmlns="http://www.w3.org/2000/svg">
<path id="Vector" d="M0 107L3.19706e-06 88.7146C7.31911 86.8097 12.8837 84.1427 16.6936 80.7143C20.6038 77.286 23.712 72.9528 26.0179 67.7144C28.324 62.3811 29.477 55.9049 29.477 48.2858C19.9521 48.2858 12.9338 45.7144 8.42199 40.5714C3.91023 35.4286 1.65434 29.9524 1.65434 24.1429C1.65434 17.3809 4.16089 11.6667 9.17399 7.00002C14.187 2.33334 20.0524 -1.45578e-06 26.7699 0C35.3925 1.45579e-06 42.8118 3.57144 49.0281 10.7143C55.3446 17.7619 58.5028 27.4286 58.5028 39.7144C58.5028 50.5715 56.0464 60.762 51.1335 70.2858C46.2207 79.7142 39.5032 87.8099 30.9809 94.5712C22.5589 101.238 12.232 105.381 0 107ZM75.3466 107V88.7146C82.6656 86.8097 88.2805 84.1427 92.1905 80.7143C96.1013 77.286 99.2088 72.9528 101.515 67.7144C103.821 62.3811 104.974 55.9049 104.974 48.2858C95.4495 48.2858 88.381 45.7144 83.7689 40.5715C79.2574 35.4286 77.0012 29.9524 77.0012 24.1429C77.0012 17.381 79.5079 11.6667 84.5205 7.00003C89.5339 2.33335 95.349 1.16467e-05 101.966 1.31025e-05C110.79 1.45583e-05 118.309 3.57146 124.525 10.7143C130.842 17.7619 134 27.4286 134 39.7144C134 50.5715 131.493 60.762 126.481 70.2858C121.568 79.7142 114.85 87.8099 106.328 94.5712C97.9059 101.238 87.5785 105.381 75.3466 107Z" fill="#F9F9F9"/>
</svg>
